<svg version="1.1" xmlns="http://www.w3.org/2000/svg" viewBox="0 0 377 360" width="754" height="720">
  <!-- svg-source:excalidraw -->
  
  <defs>
    <style>
      @font-face {
        font-family: "Virgil";
        src: url("https://excalidraw.com/FG_Virgil.woff2");
      }
      @font-face {
        font-family: "Cascadia";
        src: url("https://excalidraw.com/Cascadia.woff2");
      }
    </style>
  </defs>
  <rect x="0" y="0" width="377" height="360" fill="#ffffff"></rect><g transform="translate(10 10) rotate(0 56.5 11.5)"><text x="0" y="18" font-family="Helvetica, Segoe UI Emoji" font-size="20px" fill="#a61e4d" text-anchor="start" style="white-space: pre;" direction="ltr">Organization</text></g><g transform="translate(82 72) rotate(0 21 11.5)"><text x="0" y="18" font-family="Helvetica, Segoe UI Emoji" font-size="20px" fill="#a61e4d" text-anchor="start" style="white-space: pre;" direction="ltr">User</text></g><g transform="translate(83 132) rotate(0 62.5 11.5)"><text x="0" y="18" font-family="Helvetica, Segoe UI Emoji" font-size="20px" fill="#a61e4d" text-anchor="start" style="white-space: pre;" direction="ltr">ServerGroups</text></g><g transform="translate(140 193) rotate(0 29.5 11.5)"><text x="0" y="18" font-family="Helvetica, Segoe UI Emoji" font-size="20px" fill="#a61e4d" text-anchor="start" style="white-space: pre;" direction="ltr">Server</text></g><g transform="translate(86 256) rotate(0 45.5 11.5)"><text x="0" y="18" font-family="Helvetica, Segoe UI Emoji" font-size="20px" fill="#a61e4d" text-anchor="start" style="white-space: pre;" direction="ltr">Templates</text></g><g transform="translate(98 327) rotate(0 25.5 11.5)"><text x="0" y="18" font-family="Helvetica, Segoe UI Emoji" font-size="20px" fill="#a61e4d" text-anchor="start" style="white-space: pre;" direction="ltr">Tasks</text></g><g transform="translate(254 325) rotate(0 56.5 11.5)"><text x="0" y="18" font-family="Helvetica, Segoe UI Emoji" font-size="20px" fill="#a61e4d" text-anchor="start" style="white-space: pre;" direction="ltr">Task Results</text></g><g><g transform="translate(49 40) rotate(0 0.5 148.5)"><path d="M0 0 C0.16666666666666666 49.5, 0.8333333333333334 247.5, 1 297 M0 0 C0.16666666666666666 49.5, 0.8333333333333334 247.5, 1 297" stroke="#a61e4d" stroke-width="1" fill="none"></path></g></g><g><g transform="translate(49 83) rotate(0 13 0)"><path d="M0 0 C4.333333333333333 0, 21.666666666666668 0, 26 0 M0 0 C4.333333333333333 0, 21.666666666666668 0, 26 0" stroke="#a61e4d" stroke-width="1" fill="none"></path></g></g><g><g transform="translate(49 143) rotate(0 11.5 0)"><path d="M0 0 C3.8333333333333335 0, 19.166666666666668 0, 23 0 M0 0 C3.8333333333333335 0, 19.166666666666668 0, 23 0" stroke="#a61e4d" stroke-width="1" fill="none"></path></g></g><g><g transform="translate(105 161) rotate(0 0 21)"><path d="M0 0 C0 7, 0 35, 0 42 M0 0 C0 7, 0 35, 0 42" stroke="#a61e4d" stroke-width="1" fill="none"></path></g></g><g><g transform="translate(106 203) rotate(0 13 0)"><path d="M0 0 C4.333333333333333 0, 21.666666666666668 0, 26 0 M0 0 C4.333333333333333 0, 21.666666666666668 0, 26 0" stroke="#a61e4d" stroke-width="1" fill="none"></path></g></g><g><g transform="translate(50 267) rotate(0 14.5 0)"><path d="M0 0 C4.833333333333333 0, 24.166666666666668 0, 29 0 M0 0 C4.833333333333333 0, 24.166666666666668 0, 29 0" stroke="#a61e4d" stroke-width="1" fill="none"></path></g></g><g><g transform="translate(49 337) rotate(0 18.5 0)"><path d="M0 0 C6.166666666666667 0, 30.833333333333332 0, 37 0 M0 0 C6.166666666666667 0, 30.833333333333332 0, 37 0" stroke="#a61e4d" stroke-width="1" fill="none"></path></g></g><g><g transform="translate(161 337) rotate(0 37 0)"><path d="M0 0 C12.333333333333334 0, 61.666666666666664 0, 74 0 M0 0 C12.333333333333334 0, 61.666666666666664 0, 74 0" stroke="#a61e4d" stroke-width="1" fill="none"></path></g></g></svg>