<svg version="1.1" xmlns="http://www.w3.org/2000/svg" viewBox="0 0 795 962" width="1590" height="1924">
  <!-- svg-source:excalidraw -->
  
  <defs>
    <style>
      @font-face {
        font-family: "Virgil";
        src: url("https://excalidraw.com/FG_Virgil.woff2");
      }
      @font-face {
        font-family: "Cascadia";
        src: url("https://excalidraw.com/Cascadia.woff2");
      }
    </style>
  </defs>
  <rect x="0" y="0" width="795" height="962" fill="#ffffff"></rect><g transform="translate(10 10) rotate(0 387.5 471)"><path d="M0.019371564686298373 0.6847989723086357 C293.5724157449789 1.3594985848292709, 586.113699976541 0.5942179089412093, 773.7677473142742 -0.46939266473054886 M-0.7807944215834142 -0.1275242529809475 C287.5191352034918 5.740427862294018, 576.6268857209011 6.447927437908947, 775.2541985355316 0.017508653551340105 M773.732631881535 0.473553578555584 C783.521496973142 326.15551436338575, 780.6417100525945 648.9764567766339, 775.1274019792675 941.4209412261844 M774.8696596942841 -0.4568972073495388 C781.1738497834652 297.4825304878876, 781.8513046603649 595.656971763447, 774.6103495202957 942.78169420138 M775.679090745747 941.5893879577518 C507.69411096302787 936.1525169933216, 241.6123126378283 936.2451739395037, 0.5597571447491646 941.2371341869235 M775.7485218606888 942.6987373150885 C480.0701139529235 947.2901741592214, 184.2381499843672 947.0072547284886, -0.20804554596543312 942.6334507025779 M1.530671985447407 941.0674095317721 C1.7441577973514797 695.2637578895316, 2.642614895358682 447.94508396945895, 0.2820491388440132 -1.2060188606381417 M-0.23524796143174173 941.5456537283957 C-7.991692375525831 737.6589407267049, -6.679799937590955 533.7006495084613, -0.27718295231461526 -0.6982911787927151" stroke="#000000" stroke-width="4" fill="none"></path></g><g transform="translate(368 14) rotate(0 58 21)"><text x="58" y="33" font-family="Helvetica, Segoe UI Emoji" font-size="36px" fill="#000000" text-anchor="middle" style="white-space: pre;" direction="ltr">Node 1</text></g><g transform="translate(69 107) rotate(0 342.5 134)"><path d="M-0.03440384492278099 0.09200173243880272 C191.92830143785108 -1.4633568455837669, 384.4092234259472 -1.4074145724438132, 685.573340395838 0.5142474971711636 M-0.2616078216582537 -0.07115926556289197 C140.77623266698794 0.7193610887043178, 281.1373805744573 0.4455248932354153, 685.180107788369 0.3830523628741503 M686.2829867556682 1.1210780567237981 C681.7814282313379 74.04406250111752, 683.4553787453746 149.59212953429375, 685.2496858626461 269.39016378769566 M684.5230102266122 -0.06641920111674107 C684.845669652972 57.570220193435674, 684.2733859338174 114.81405166685734, 685.3547657529253 267.92772746209437 M685.073054317385 268.00495448932054 C544.9728880220093 267.3481098400615, 403.7093466350808 266.91539397111165, 0.6521684922277928 267.22528832778335 M685.3744683187455 267.9602141637355 C420.4708671162836 270.2119297525473, 155.2419161060825 270.7099006554671, -0.15056793279945851 267.9353158373386 M0.5167266684883348 268.3982418004122 C-0.6166554470950603 185.7612451308529, -1.7394895895449876 101.88905554328893, -1.314089586180783 1.5538094674207574 M-0.5397046085328396 267.58417031129767 C1.370194609815519 183.95914513092376, 0.3473780724076323 100.14224301367203, -0.013266053385895118 -0.04754059054324664" stroke="#000000" stroke-width="2" fill="none"></path></g><g transform="translate(341.5 113) rotate(0 115 21)"><text x="115" y="33" font-family="Helvetica, Segoe UI Emoji" font-size="36px" fill="#000000" text-anchor="middle" style="white-space: pre;" direction="ltr">public schema</text></g><g transform="translate(78 175) rotate(0 110.5 86.5)"><path d="M0 0 C0 0, 0 0, 0 0 M0 0 C0 0, 0 0, 0 0 M1.1107415759097443 11.186789332747042 C1.3410306525983542 8.24355872390808, 4.5333738756975475 7.100410448603988, 9.418792197060716 -0.18324478463383898 M0.29451282928694356 12.608961103528321 C3.9885261938564494 7.761886887123985, 6.61601565449143 3.877275426809452, 10.789091394049061 -0.07070696027132262 M2.0478282442501996 24.67753538833475 C4.997923813197334 17.27263375519152, 9.132996765062476 15.971460410087337, 22.916510284224415 0.665151591801596 M-0.14744390247396488 24.69574086619085 C7.773240544892886 14.725199331271762, 16.507016879810067 5.860299167136617, 21.164482028501 0.5092195667489889 M1.2340482807624618 37.0651944464085 C10.250389961265132 23.1790607652226, 22.936749743321982 9.708097998592155, 31.72656854563097 1.8860988450481777 M-0.452287311768206 35.959807398544 C8.79541708895582 27.191629762943762, 15.910094001056116 17.636725386374522, 31.25279542472849 0.38377976149909543 M0.9544954523443394 47.75079246857099 C14.182372783441208 28.533652886556194, 29.53103802992657 10.176362536689851, 42.64385985452287 1.3534812637000329 M-0.3725684648380465 49.04844615762018 C9.2813598889974 37.229886630078276, 18.051747385079643 26.719604427343707, 43.41357567123674 0.3056698588981277 M-0.6147969848384349 61.41573581238876 C11.797964546844414 45.34417942399599, 23.511345276603972 32.995441228262095, 52.93211712105638 0.7186050001009114 M-0.48674018950212883 60.84530349122028 C19.483006384526163 37.53644159308229, 39.211409449766634 16.355875396020842, 52.61798365669763 -0.8178530609757892 M-0.9757211206296077 72.22695563020555 C24.28734858718867 45.38147933112857, 48.120868946186405 14.210354399154141, 65.58358888038774 -1.1894894184054365 M-0.8158290970885744 72.37482397942243 C22.581365184296846 48.8802170274691, 42.6221855807999 24.269700633049972, 64.20729745728303 -0.15277410554453041 M1.598346580127071 86.02911744936512 C22.129324296884054 57.671913153213644, 46.00866910578757 31.909302698143378, 74.8815392926732 -0.9265270894752575 M0.2392553885744917 85.33821001480476 C20.10485904101365 62.864489701345896, 40.5051768006371 39.648450672059354, 74.61166233666482 -0.15707056972996725 M0.9689862485973464 96.53683075243399 C25.034974491095618 70.76541333523906, 45.5880317648316 42.97782353813717, 85.962748143069 -0.9954987357648122 M-0.03958799783156053 97.64938138266817 C20.478134596035247 73.21802762790779, 41.80378225659192 47.92708743038489, 85.06884074601487 -0.7994619359539854 M1.3194707279184783 111.75331065631033 C27.66592347599483 78.17159243900436, 56.006325728607486 45.01941448871435, 96.38001084173143 1.5908392950696566 M-0.344666247153846 110.19738694014521 C34.97757272900295 69.63676979803142, 69.2601677837463 28.092171063392, 96.34296232400507 -0.7781598741384528 M-1.2190886007437882 121.93613539356073 C23.455445081597144 94.19355470871325, 48.16575053943267 66.5085801766958, 107.66463842381668 0.7474650303719059 M-0.5600962497109947 122.15591209753683 C30.255260838902494 85.3882240648532, 61.25001697900601 50.34201040391565, 106.44327389680726 0.26038175829476273 M-0.3810057022331961 134.01590799152888 C34.46145686036973 94.97829228262376, 65.83691472800554 55.4741456967041, 118.23289852049055 1.5093004527084517 M0.5811813206688754 133.7456904974211 C39.47028601292588 88.6646276926585, 80.0141867246625 42.18973955025376, 116.68683044910284 1.257426496646552 M1.1404210836064834 147.78846585255857 C48.114535434974826 91.00160736812722, 95.21461730020296 36.37779138715415, 125.57275147489025 -1.5501268210225092 M-0.439907022342382 145.7704635948762 C39.248069568086834 97.7306166398285, 80.02505827078588 50.683292973697974, 126.04148124004467 0.504366948049487 M-1.2648925224816325 158.1873989475151 C53.93387317145004 95.61403261125089, 109.13466247717649 35.48107882723212, 136.06430483941313 -0.276001040501065 M-0.7925239868495793 158.2278984423643 C37.5956734906433 114.3673091582732, 77.88164120515678 69.76373564801263, 137.86472048404832 0.8768531442732648 M1.170768953521075 171.23450166808095 C56.75256374532981 104.12492803128218, 115.19272495936619 35.715464628521104, 146.47745847201412 0.9828219398525873 M-0.28879566889557884 171.57376419378264 C33.88086088650916 131.34902364661244, 68.79139032738553 91.26287647652747, 148.42150498654382 0.8734136031190639 M5.138562666994709 177.81702547974373 C44.38162365676278 131.35013349215671, 84.3416037607417 86.43615562151626, 157.6286817445938 -0.8627572697579773 M5.419786647204331 177.191094178433 C54.267139784455395 122.66300865417783, 103.85749831334655 67.2835654929885, 158.7369431125222 -0.045697997031773074 M16.354840249812632 177.848516581291 C57.99019780214429 130.36450739422295, 97.51219814855718 80.59446468403154, 169.67956574816517 -0.9767779770257063 M14.736218627940598 177.80063119634144 C54.97856036696229 130.80280409063914, 95.5921063031529 84.45912055713133, 170.13343305030116 -0.13331657123678176 M27.166784589260487 176.16558496685775 C86.75280264254839 106.78153923788943, 144.84770542917948 39.35816059854492, 180.2449450672044 -0.5002257364556055 M25.40475943537897 177.18354195218407 C84.52382852217403 108.39304238249501, 143.56164472979037 40.10060890347074, 179.95538954122264 0.2556675984737676 M37.881841453160575 177.1234811850279 C67.68788965766122 141.57533193570578, 100.87473532770358 106.9050305713055, 190.67937900859627 1.4816340864738091 M36.464159457092734 177.6190089939344 C74.81815734225577 130.66706578964144, 115.14101700944833 84.18347516388768, 191.43905814082873 0.18923407960475752 M47.10610258589762 179.1251824328231 C79.07279702443863 138.62850158187325, 114.6312201842148 98.37834275946331, 200.68867510578798 0.7202965247215364 M47.15946852987381 178.0632321078474 C94.400405615137 124.8385257256767, 140.89037105841325 71.44866218911268, 200.84677672888006 0.48849680294233516 M56.42590595841892 177.51451630570216 C94.2150772461442 134.52967727902862, 134.3059435376621 90.02694689340065, 211.3282173687893 -0.8864992403159679 M57.546961814733024 178.17350044345912 C93.08505217290943 136.6088678553799, 128.7818924764086 95.29999411056447, 212.37971338435617 0.177052187553855 M70.04286329508646 175.88267108263406 C104.30637589020262 135.17265736841938, 139.10779598818712 92.93011650348951, 222.29616345481543 1.62162900574388 M68.2571434480305 178.1255442444213 C111.12311415485117 130.53325024216207, 152.29414746229955 83.63525821091899, 221.29277396747966 1.2607010210320835 M79.24698051952963 178.92786307544358 C117.63122500996666 130.60873094366923, 157.12926584852386 87.31022770425545, 223.7438766898127 13.067498952497012 M79.43081989651495 177.5881663337211 C107.72440001363674 144.9723873007664, 136.2571051552918 111.29033479442776, 222.64333024602752 12.53589339844355 M88.93352740822755 176.49574630980885 C124.66571343152461 138.60984281914997, 155.84936206030284 99.36923257629319, 221.4668583049827 26.224909817075435 M90.46376152881439 177.19082915700372 C136.839777932355 120.77356403118722, 185.92511863430224 64.4464605979501, 222.53049004496268 25.37004558967182 M98.73295249580374 177.61970999842282 C130.5698155872337 143.20910662258805, 158.67361681720482 110.82046615900296, 221.16509404139393 36.20613069758093 M100.53730787965438 177.65844385238137 C142.56274786681035 132.13052177697205, 182.2100394188278 85.47859549035016, 221.9457037990334 37.01974171232706 M109.95675472998862 176.6759672339692 C146.9231572145827 131.90934510469728, 187.13288233366495 89.40511589883617, 221.36119962972384 51.399163564714144 M110.1012901830474 177.54682183430188 C140.64748688610194 144.43072233560738, 170.92509028952267 109.57441729803624, 221.10622747079265 49.638079796964774 M122.46436471869009 178.4163427403896 C152.0774410673761 144.52447865505627, 181.5286430280585 111.02410547193922, 223.00377166397664 60.974007573815086 M122.19193245195555 177.83839519738694 C142.71309142298446 152.82608007275743, 164.40713291079123 128.65167624190337, 221.07682785611394 61.46945823347012 M130.6777184970644 176.1151895450278 C160.24271875110162 145.44900680249322, 188.56798457416278 112.60037863061658, 222.32138680430847 74.5546251272276 M131.7481690125507 177.83202258421468 C160.5661687733838 145.25393657463528, 185.8467697428019 114.7034925736848, 223.00249396866906 74.27855597692131 M141.05976772526785 178.91209505022752 C162.91567538511498 150.63858434094962, 188.8738021200552 126.41089118474275, 221.64613733587572 84.56771300229538 M142.42280137850477 177.90957044986325 C171.65192387127337 142.91327870754887, 202.74841291179638 108.64096289136693, 221.21083200963 85.94430979489643 M151.67697968845664 177.24938103333247 C167.27187666051435 160.10992835381808, 183.4796433244508 140.95007449271765, 222.32007213984406 98.43491193158494 M154.3012482509896 177.3171630619107 C167.31213434099112 159.93177429408806, 181.9917522660068 145.27667266808595, 221.27475633867806 97.99587384769634 M165.761837296787 178.3096036466865 C179.0435867706818 159.99211738734473, 190.59546109747671 146.31299814649464, 222.88193280935073 108.99146828199451 M164.62029551867704 176.94643250043524 C185.70221122838086 153.6025273863369, 207.78179367472046 128.10288436867793, 222.35547558996612 110.37503136745369 M175.27533908541523 175.45305341763324 C184.39985579927855 163.01046906730966, 199.41435729360015 150.07172481679692, 220.6932994755615 122.45199153609057 M175.486846257739 177.1157686580149 C183.40140718550782 166.2257464299344, 193.3777111994988 155.89792992367933, 221.98488849817556 122.74570213946929 M186.46949921449757 175.65525524851657 C195.4484939530119 165.3204464395872, 207.67315171625822 154.13223243155264, 222.12532692363266 132.82911597121694 M184.59667073184735 176.35156923972792 C195.3399010047582 165.0464682459484, 206.44297298252357 151.71980977585034, 222.4085700144783 135.25635418132134 M195.44984746919027 176.94446841668014 C202.04943174182856 171.28677365341383, 206.82124483092173 164.66083389941835, 223.46518556372038 146.12571023971736 M196.95315639217398 177.16948976315234 C203.67460198243134 168.76558105123635, 210.65548012873063 159.36851157269942, 222.64846227754614 146.075963323088 M205.73792925964955 175.83918657446773 C211.7683564777312 172.84984583962145, 218.14068960007899 164.5524937054622, 221.82250240199045 158.52708694915827 M207.58605787739072 176.8556935583663 C210.98810558154457 171.52638103224788, 215.898716267712 167.25428449779363, 221.5655655845605 159.92997278757002 M216.73692088750005 176.8626654441972 C218.63324503293055 175.34970861383763, 219.67982805945303 173.625709259684, 222.34079150684883 172.0406461614588 M217.23967537492328 177.0245278507509 C218.44507381092137 175.03849700928984, 219.99144569598346 173.29932109884246, 221.60118107955677 171.70571034624555" stroke="#e695b3" stroke-width="1" fill="none"></path><path d="M-1.263665503284755 -0.6284850584254591 C74.42645694966885 -0.7273504907169391, 152.75737893551735 0.8921866166998812, 219.3585786428349 -1.6884117194757786 M0.5862169608762576 0.6110816578362867 C63.05198552679779 0.35899830351177836, 125.94375514739005 1.1683908571161425, 220.82832116086112 -0.6851480764189793 M219.03125442005702 -1.3178894314914942 C222.5700571552758 56.29647460086271, 222.72821611323403 115.80783227030187, 219.25542611815044 172.6741492357105 M221.24044863414028 0.6960185812786222 C219.4639168661368 42.996715642791244, 220.40197348411203 83.94731981642545, 220.0552593572066 173.42443171609193 M222.63945341770665 173.11089571384187 C160.9767960950568 172.18701747048812, 101.15342507541908 171.33658045577968, 1.4982824179948655 174.61862463016584 M221.64418227734143 172.60806954427798 C135.17243991374448 173.4947606139217, 49.469171027572145 172.66999000148908, 0.06656855107186585 173.82749199003678 M1.7799565885215998 173.28448452614248 C-0.21564428829587978 129.6761108619161, -2.238733041519299 91.34253845196217, 0.2377289030700922 -0.5881199035793543 M0.9537697834894061 172.42121881712228 C0.8404669812042265 130.05237414995207, 1.1700812926609068 88.79004059880971, 0.710831712000072 0.5575699554756284" stroke="#000000" stroke-width="2" fill="none"></path></g><g transform="translate(142.5 192) rotate(0 31.5 11.5)"><text x="31.5" y="18" font-family="Helvetica, Segoe UI Emoji" font-size="20px" fill="#000000" text-anchor="middle" style="white-space: pre;" direction="ltr">Shards</text></g><g><g transform="translate(195 177) rotate(0 -0.12265216768719256 0.04345077910758732)"><path d="M0.7713712457567452 -1.138596076145768 C0.6348467234522103 -1.3138122383505104, -0.9118258472532033 -0.3454727593809366, -1.171191632375121 -0.19128637947142124 M-0.28279757956042895 0.8780370385386052 C-0.039018764887005175 0.8152001393772663, 0.5958467139862476 1.226730830166489, 0.9258872970007359 1.245713522527367" stroke="#000000" stroke-width="2" fill="none"></path></g><g transform="translate(195 177) rotate(0 -0.12265216768719256 0.04345077910758732)"><path d="M0.9258872970007359 1.245713522527367 C0.9258872970007359 1.245713522527367, 0.9258872970007359 1.245713522527367, 0.9258872970007359 1.245713522527367 M0.9258872970007359 1.245713522527367 C0.9258872970007359 1.245713522527367, 0.9258872970007359 1.245713522527367, 0.9258872970007359 1.245713522527367" stroke="#000000" stroke-width="2" fill="none"></path></g><g transform="translate(195 177) rotate(0 -0.12265216768719256 0.04345077910758732)"><path d="M0.9258872970007359 1.245713522527367 C0.9258872970007359 1.245713522527367, 0.9258872970007359 1.245713522527367, 0.9258872970007359 1.245713522527367 M0.9258872970007359 1.245713522527367 C0.9258872970007359 1.245713522527367, 0.9258872970007359 1.245713522527367, 0.9258872970007359 1.245713522527367" stroke="#000000" stroke-width="2" fill="none"></path></g></g><g transform="translate(73 407) rotate(0 342 119)"><path d="M-0.7807944215834142 -0.1275242529809475 C253.69738820083438 2.4536805224865677, 508.9833917155862 3.1611800981014966, 684.2541985355317 0.017508653551340105 M-0.3168420296162367 0.118388394638896 C236.32462942525746 0.828071791559458, 471.60311450622976 0.27946135464310656, 684.0318504948169 -0.14476469345390797 M683.7273816503082 -0.9556411730230144 C684.7448324754433 75.0359134684297, 686.1617896439632 151.5190199293351, 683.1850113428061 239.63498299297024 M684.3550946834516 -0.21470790770849324 C683.8934570485287 82.13882711429409, 684.6099305187875 164.32092291325856, 684.2926954716572 237.6010995642233 M684.7485218606889 238.69873731508852 C423.7885305520147 240.2900451977402, 162.67498318254948 240.00712576700747, -0.20804554596543312 238.63345070257782 M684.3826679963619 237.76685238294303 C504.6784935519099 238.31181615132093, 325.4502243351191 238.26746062773464, 0.0705122847110033 237.69849528484048 M-0.49204204840305515 237.04969433612143 C-3.1145954905424054 185.59474955409976, -0.37065569817463695 133.99009256169677, -0.5797528140487738 -1.460538148359876 M0.46648287424132556 238.38428410302956 C0.013753163316059108 167.30428127994762, 0.7998893516191362 95.76805427647898, -0.6827329310764935 0.5482392065829005" stroke="#000000" stroke-width="2" fill="none"></path></g><g transform="translate(81 474) rotate(0 101 79.5)"><path d="M0 0 C0 0, 0 0, 0 0 M0 0 C0 0, 0 0, 0 0 M0.6240676486026153 13.349644290327609 C2.4335145913395024 8.453077739434905, 8.176453713302266 5.176065973106303, 9.901057478737963 -0.7558329422876476 M-0.6626125483680858 12.80985631760913 C3.218180689277868 9.522057274224881, 5.973787981830733 5.874823086485353, 9.874693677526844 0.23711879580167539 M1.9986212721280072 25.40778407798624 C6.688261621924866 13.935574763164704, 17.36154965042365 4.622419043433137, 20.92491287020769 0.2663795905351165 M1.0038399577326391 24.318956899172722 C7.038513998940292 16.724993619903465, 14.258338822407506 7.288831182389174, 21.291660816686118 -0.4434959493414041 M-1.0795095824730119 35.31357820686077 C8.3949305857629 24.30690209405997, 18.55688478568232 13.721970280023218, 31.121743287375963 -1.6339423822925205 M0.4760084197762886 37.72306478284423 C9.083746536207565 27.520693073200434, 16.327303826142288 16.644461075215926, 30.989627685814 -0.9861453798354383 M-1.8297121301294155 47.266578877949044 C10.028814076708416 37.917245301335576, 17.813699221642022 27.919937296531266, 40.77419542390459 -1.2182491115898841 M-0.7340333228931613 48.77828297917627 C9.397811709275379 37.87745607313477, 17.990000274072788 27.152975066640447, 42.22844519428514 -1.1275830717430466 M1.291234385324529 59.45600494881759 C21.304327902403198 36.271874020084056, 40.63167758311282 13.14020111122342, 51.26318968994981 -0.0774219450132243 M0.924168151905647 60.80185158596973 C17.18086445698156 41.593568204682676, 33.24088188952487 22.562960077661565, 53.73318048077142 -1.1519581949861042 M0.8986253740450749 72.80660007181017 C13.417616971337893 54.37039450634202, 27.831642290993408 41.00604353891138, 64.44816212066789 -1.374607855218791 M0.18349248284459208 72.62680893330274 C22.234635195365307 48.35648826545301, 44.25848300388789 21.921838728708302, 63.224017871444715 -0.04166210698648598 M-0.41372812881152754 85.17084227427051 C20.008384573088843 63.66223850691587, 38.152060089708705 42.577577463052286, 76.22956437621507 1.5922805601371692 M0.02193649609554882 85.13795116375343 C24.350086651100575 57.12589260832726, 48.9349896187607 29.036449856508447, 74.1350088799769 -0.6960783526660634 M-1.1670584920795335 99.52115353876516 C17.130620024947255 75.97940946422787, 38.18121808998598 52.76420868093207, 84.1113637417476 -1.1719349216016042 M-0.2746948236601128 98.8077918126227 C17.703846402809337 77.76414356765234, 37.582608862772176 56.00250141276542, 85.33282220753983 -0.15033266444672222 M1.1890946273783172 110.36856148219229 C30.25875007770361 74.4422898847227, 59.35622648445405 41.61508883726944, 96.76354312742174 -0.9221981480913541 M-0.7698022172695076 110.4589734870431 C19.99635853652657 85.06530236323184, 41.994157140640965 60.66138935162013, 95.83549374280543 -0.7940429622503302 M-0.0969698892722306 123.72845683711847 C38.37735585096192 75.53478061486769, 77.27807790679027 32.202343034419684, 105.58460106839371 -0.7357185919883236 M-0.0935963250512657 122.57377534731557 C38.47221422871999 77.43913991908025, 75.62128738806851 34.96693698709609, 106.5311765619455 -0.5900693534987553 M1.1076214931250803 135.5392551308874 C30.060761487059615 97.26937927188413, 62.55165435498846 59.50549259423833, 117.6079926958293 0.6802382292740035 M0.899888429166495 134.0565247860182 C42.21663018360597 84.6536013082591, 85.17953159179154 35.7787915810886, 116.24083189964148 0.46144544710889335 M0.7267579347264785 147.85460626584288 C39.7456824832323 102.83224490734062, 75.40572221291602 60.439259517236096, 125.68886585286572 -0.5929875674061762 M1.1954848090556283 145.76955700822916 C29.86928536502444 112.36449153510095, 58.30523472555584 80.0895173504463, 126.0612152650462 1.0854877967051877 M-0.5737628344747547 159.00756072751818 C45.173735973124835 107.4590854643425, 87.81194255519623 56.52976397886542, 138.06076255834958 2.049949740554862 M0.5725904072031646 159.03721376236567 C44.15581962937435 107.75886281261106, 87.95234759882084 55.772044366483776, 138.07583648189896 0.07255739331363009 M4.6519043568856135 165.2059172486401 C45.12550608160081 119.3056141059951, 84.9395618656848 76.33536850754815, 148.77916182967746 1.175730907015522 M5.4406313589858035 164.6817236269367 C50.65672487983978 111.48013961709637, 95.82485471490494 59.75158292509872, 148.06925401702154 0.8077637932551847 M16.69458660210699 162.40387842666257 C65.2649437750584 109.67962825491875, 115.3261791563961 50.5755138587907, 158.43814693397476 1.6574633391456526 M16.19946597224908 164.50415935536057 C64.15570729475664 109.20898487399259, 113.67208473759365 53.58420323025344, 158.80354570372538 -0.39646122944704765 M26.357920854304663 163.63011315854857 C59.847315706099636 126.78401175056486, 91.65945882689674 89.60296334780091, 169.2814252942718 0.1395769354908713 M27.83439702836206 164.22609668317105 C62.83717021511262 122.90686344447947, 98.57383648339953 80.71773021831662, 168.70489161032967 -0.047045434500964656 M39.1475825515646 163.82242609058713 C82.70834076098464 112.97366796098615, 124.57149663389171 62.255604377714796, 179.78198049240453 -1.2712383014097597 M36.82437034734431 163.29938337316108 C73.53085621731184 123.0767221943261, 109.72417113722312 80.48245595667125, 179.60719573497903 0.8967248127614025 M47.63937672572274 165.53694577531738 C92.49752379655494 113.25192481871565, 134.75887879204123 62.70529707038695, 191.22689430395894 -0.7491914627671777 M47.625014802340374 164.35343178499863 C91.25143721213612 113.64906959382184, 135.10782908363993 62.86452356344549, 191.26996482894302 0.32217444388302263 M58.990325002365 162.7683368715283 C100.77247367490725 115.00943942162951, 144.95789596736068 65.93730497487479, 202.10617449827086 -0.7262409335423063 M58.477279619619736 164.2881639752267 C113.05149787093889 101.78306550028664, 165.5297977880431 41.290387646974565, 202.00479849661605 0.8740375872818785 M68.39471609953999 164.87718030251241 C113.80250393131237 112.50372806020182, 161.29760221784622 62.08014521384212, 207.27326233387183 4.865338943396887 M69.00044703513358 163.66946514030647 C104.60914306248003 124.03466988951092, 138.47782302379883 82.5095033831513, 207.9801082379346 3.823655556339403 M79.61254285296582 162.78824421882172 C109.58604289975116 127.11231431094406, 143.72919501417323 92.93711026472283, 207.41902805265906 17.89631029692704 M79.94587268049054 162.95234866465916 C131.23787748377796 105.92236928868029, 181.80010398630637 47.51814136503438, 206.58235008508834 16.6141376906004 M88.89891565905012 164.18857761098434 C124.64964124943796 123.26327802117416, 161.80915274151852 81.03208228486709, 208.84475743554464 28.259530160520214 M90.3823630328948 163.67676046768565 C127.39653778140607 119.87070312441821, 165.75955909465708 77.06689583475513, 207.1895700382807 28.708676832672197 M102.84464553605727 165.4140815201147 C126.96616922540358 136.69643468748149, 150.39252889404844 105.70281383220306, 207.85226820575934 40.792097787174896 M100.88185978636108 163.7831579350798 C132.29751881130636 126.7403849685391, 163.09186972894094 92.44769837959755, 207.74770532808196 41.43742942231478 M112.74080914414348 162.0262183485566 C145.34571753323866 124.89261063564871, 182.6575020324726 86.02994748111176, 208.10177764845935 53.84258495423485 M112.5581019545612 164.56747002191975 C139.63951734727377 132.90263690434372, 165.27551220804742 101.84739154544371, 207.79529965566394 53.843394727106286 M121.32593973947458 163.14389445387656 C154.17128644512314 125.44362858916178, 186.5255608295323 90.08937080672544, 209.419518673801 67.49979781404384 M122.0513867096766 165.1945930760064 C142.10544199800017 141.907876562709, 163.3857405874478 119.20267406484592, 208.5222639096986 66.11507982712486 M130.97276329018777 163.86212182797271 C160.39120980021613 132.09225253766232, 192.35770458072574 95.83761330918281, 206.70418078795 77.78498647416835 M132.87155549836015 164.4608025169723 C156.00967879165262 137.44731151573228, 178.78778970372795 111.65037688194832, 207.83256713736728 78.12245919517134 M143.3143443024488 163.2177755784117 C164.90695910805294 138.97206470575128, 186.7246860128078 117.43756648385451, 206.11364620904357 89.07050667650664 M143.1803898677932 165.10326031761844 C160.17323727957526 143.91928417381797, 176.96841580094608 124.66239077414224, 207.6872226603228 91.1793863758784 M155.43082193641396 164.6082556075372 C176.836552166714 139.52928898997916, 197.98928501824406 114.64839020633318, 208.69113569324753 104.04557727862519 M153.13459758164765 163.56242668302284 C172.54104305337523 143.08112334275188, 189.91604884199285 122.89563322608211, 207.88668390074662 102.35310146704686 M162.75585097723948 165.98369619269292 C173.86991678723564 155.79453959397443, 182.65654708849883 144.52378814492332, 206.5519446507181 116.13494193286775 M163.94850359109537 164.51801963076363 C182.96948822505195 145.4738619595291, 200.04724308007053 125.47908432192455, 207.41383049731058 114.22664279875485 M176.6391018350816 163.28446598622273 C185.3408746623638 152.69729729128875, 197.21640119423714 138.5097616110637, 209.13382508762098 128.44578824680087 M174.61280003480823 163.67026499091904 C184.65483316662542 153.53619248028792, 193.50690375660298 141.21524365688222, 206.84060024719602 128.18951609380332 M183.9087605450965 163.87866801547025 C190.30405327875096 159.6206492200003, 196.91409214166274 149.9376492528883, 207.38372172209347 138.18640946232273 M185.61329623895804 163.52114640606706 C194.67711805538875 155.7486283541002, 200.8544954084952 146.00433518879439, 207.67097522205586 140.2001061468248 M196.4418166046218 165.72632825843087 C201.49505024362375 158.67296304495972, 202.94692700475161 154.65639600333662, 209.12217281497922 150.73929274495023 M195.7751105619316 164.15894155966146 C200.31654677590006 159.90544256313584, 203.37945315727305 156.29739471099185, 208.05071363118387 151.13303175827753" stroke="#7cb7e6" stroke-width="1" fill="none"></path><path d="M-0.28585849300634486 -1.172840709273926 C73.26572794188179 2.983092109522662, 148.43640900165167 2.3375435432244878, 202.03924741530935 0.8074595970317445 M0.26537954381094386 0.7312048980723518 C80.58307357564257 0.5520430769189781, 159.29745219678503 1.5060675901002234, 201.67549531838904 0.1423019566956777 M200.85775698162615 -1.2127399239689112 C200.44419386061838 62.23042453387753, 202.00510092648676 122.52492833193394, 203.95423550345004 159.90198703669012 M201.74336747359484 0.09131789673119783 C200.50405548960902 47.18686463357881, 200.56196608097292 92.8281925059855, 201.5232088668272 159.81521061528474 M203.5662902642397 160.67881711553645 C160.78310178275788 162.03020168516207, 119.11037902737847 160.2283111210749, 1.4199437283491647 158.3249735425376 M201.4773760684575 159.2944949114198 C144.89351776008598 161.530724199649, 87.46064058846186 160.89079411381215, -0.6758532710063296 158.25106885345758 M-1.1358656790107489 157.62780847214162 C-1.2462357296328992 97.50414643352852, -1.3465568436961621 31.50025635231286, -1.7457279469817877 -0.03372875787317753 M0.45932076405733824 158.87260181177408 C-0.7681662757042795 113.07316851234063, -1.4107390064839274 64.70580785237252, 0.6552903158590198 -0.4811631692573428" stroke="#000000" stroke-width="2" fill="none"></path></g><g transform="translate(151.5 491) rotate(0 26 11.5)"><text x="26" y="18" font-family="Helvetica, Segoe UI Emoji" font-size="20px" fill="#000000" text-anchor="middle" style="white-space: pre;" direction="ltr">Users</text></g><g transform="translate(337 405.5) rotate(0 128 21)"><text x="128" y="33" font-family="Helvetica, Segoe UI Emoji" font-size="36px" fill="#000000" text-anchor="middle" style="white-space: pre;" direction="ltr">shard 1 schema</text></g><g transform="translate(127 532) rotate(0 41.5 46)"><text x="0" y="18" font-family="Helvetica, Segoe UI Emoji" font-size="20px" fill="#364fc7" text-anchor="start" style="white-space: pre;" direction="ltr">- id</text><text x="0" y="41" font-family="Helvetica, Segoe UI Emoji" font-size="20px" fill="#364fc7" text-anchor="start" style="white-space: pre;" direction="ltr">- name</text><text x="0" y="64" font-family="Helvetica, Segoe UI Emoji" font-size="20px" fill="#364fc7" text-anchor="start" style="white-space: pre;" direction="ltr">- birthday</text><text x="0" y="87" font-family="Helvetica, Segoe UI Emoji" font-size="20px" fill="#364fc7" text-anchor="start" style="white-space: pre;" direction="ltr"></text></g><g transform="translate(73 687.25) rotate(0 342 119)"><path d="M0.570065101236105 -0.7874982319772243 C150.49285716302694 -2.1674906911402942, 301.75049648433924 -2.104227107957006, 684.706894453615 -0.6978295527398587 M-0.03377398066222668 0.09617945365607738 C194.3343112938106 1.4642029761373998, 388.5026548232883 1.839425623327494, 683.9632496137172 -0.37789625711739067 M684.0103627553634 1.5857465471624799 C683.5962580597214 82.08686578630234, 682.6911943081003 164.36701813046616, 682.3796215882201 239.44920016961095 M683.9167843825134 0.623079503817984 C685.360059623643 93.45095246777537, 686.4016100865101 187.02212447899495, 683.8647073169032 238.06438783125628 M684.2025048576295 238.71198263540865 C413.4775664325803 239.03964354492723, 142.12453581392762 238.23040804363788, 0.7901078306138516 238.09509156122803 M683.7885517496616 238.38150791339575 C498.6821882292628 235.98425051373243, 313.47825581543145 236.1160962383151, -0.024174259230494502 238.28433268480003 M0.605818122513669 239.35910065731554 C-1.3839764870156448 151.96436919752705, 0.1818822479554255 67.85455364574103, -0.38040686454089356 -0.14160945347421688 M-0.6804179881310608 238.18367972556297 C-0.027416881202035226 147.0201249376266, 0.39662556794660775 56.156581010697565, 0.2500644324471924 -0.11821814157346822" stroke="#000000" stroke-width="2" fill="none"></path></g><g transform="translate(81 754.25) rotate(0 101 79.5)"><path d="M0 0 C0 0, 0 0, 0 0 M0 0 C0 0, 0 0, 0 0 M1.5583753668795932 12.517513238310396 C2.725123234370509 8.069769752204099, 4.770208601609004 8.481715307883437, 11.955154320550097 0.5528181712224844 M-0.19784235049973858 12.532077620595276 C3.7517680777535034 7.312309642752317, 8.303813827375905 3.021508189992491, 10.553531715971364 0.42807255118039866 M1.756961928885362 24.269626412256716 C6.635251725650214 15.15778190111247, 15.153121583945527 6.482118248596414, 21.09647870091524 1.9205936746835235 M0.07062633635469417 23.16423936439222 C6.331000320447194 17.62307529913009, 10.558659094478415 11.38930537966954, 20.622705580012763 0.4182745911344412 M0.8213500714767257 35.70993401464199 C10.23323595387312 21.06712226344965, 21.66377884787608 7.217116083505523, 32.013770009807146 1.3879760933353786 M-0.5057138457056602 37.00758770369117 C6.794927548689676 27.85122504713545, 13.311744210458441 19.933379535629804, 32.783485826521016 0.3401646885334735 M-0.7479423657060451 49.374877358459756 C9.139744238098906 36.2724062158381, 18.34493867940851 26.809006285761964, 42.30202727634065 0.7530998297362572 M-0.619885570369739 48.80444503729127 C15.437404947584898 29.9358657050735, 31.344098049573127 13.151673911299191, 41.987893811981905 -0.7833582313404435 M-1.1088665014972179 60.18609717627655 C20.026197556094466 38.08847134929091, 39.75068871441735 11.64424379412143, 54.95349903567201 -1.1549945887700908 M-0.9489744779561846 60.333965525493426 C18.890782145092086 40.87291812859403, 35.3858333111425 20.341342636183974, 53.57720761256731 -0.11827927590918463 M1.465201199259461 73.98825899543611 C18.75934754766952 49.34868488842629, 39.446908259142454 27.25780202171059, 64.25144944795747 -0.8920322598399153 M0.1061100077068815 73.29735156087575 C17.19246694210766 54.09240247403386, 34.80568154652885 34.082558862157995, 63.981572491949095 -0.12257574009462502 M1.4918998967202413 83.7412627182822 C22.507773052753116 61.4377973598544, 39.99824026120639 37.17331441812268, 75.33265829835328 -0.9610039061294628 M0.48332565029133434 84.85381334851638 C18.27632779459519 63.58100488723041, 36.76917027419055 41.54883427369741, 74.43875090129914 -0.7649671063186361 M1.1863253470508681 99.71245220238134 C24.53012574664627 69.66933778851977, 49.750562987355444 40.10626901955845, 85.74992099701569 1.625334124705006 M-0.47781162802145616 98.15652848621622 C31.041188450637975 62.0656913671452, 61.49087448456576 24.93035007780439, 85.71287247928933 -0.7436650445031034 M-1.3522339816113984 109.89527693963171 C20.932065952753273 84.9234438371793, 43.18187984697968 60.06894106617162, 97.03454857910097 0.7819598600072482 M-0.6932416305786049 110.11505364360781 C27.14338411724509 76.91987237097365, 55.05009961037264 45.426043110531566, 95.81318405209154 0.29487658793010496 M-0.5141510831008134 121.97504953759989 C31.56141858270895 86.27990214230638, 60.09574598182153 50.04410228816886, 108.25886770476532 0.7890857021210209 M0.4480359398012581 121.7048320434921 C36.004358987015806 80.51874942326167, 73.12602272467794 37.980694577855814, 106.71279963337761 0.5372117460591213 M1.0072757027388803 135.74760739862955 C44.05955053335334 83.51452454221764, 87.22599976994488 33.41583526284185, 114.94266163017454 -1.5156319913871599 M-0.5730524032099851 133.72960514094717 C35.84630624412962 89.64093143691703, 73.24268500561917 46.482554644291184, 115.41139139532896 0.5388617776848363 M-0.8777363389360886 145.31152230006452 C50.10676592060159 87.64908677916978, 101.12308926679422 32.774796960291155, 125.23990632346585 -0.31843122861909734 M-0.34296295844048075 145.3573722035512 C34.88497074772266 105.20453062868545, 72.24597375942335 64.19563368692164, 127.27817578459843 0.9867271024398221 M1.0773140492038005 159.20604477507018 C52.49918037815067 96.88634653539624, 106.83918638198452 33.15678200571661, 135.79482595324714 1.0394528416461277 M-0.4276896890979738 159.5558692101139 C31.338631513058285 122.13861846982698, 63.79778393949221 84.87475622577132, 137.7993944573504 0.9266384083168939 M6.335970411394395 164.27469684202865 C42.587363201339336 121.31549073632323, 79.49456584522473 79.95092999599746, 146.95700503005415 -0.8674765092333716 M6.6272193838142375 163.62645252027386 C51.653150594491116 113.33823436073915, 97.55761776835381 62.25837523637022, 148.10477338302735 -0.02129094066901338 M17.573144247454398 164.3085401912242 C56.0270753700302 120.47360267353508, 92.22508280179034 74.3739064942352, 159.05853709843228 -0.9843321322973329 M15.896822463816406 164.25894780173422 C53.056297450391334 120.80539494363546, 90.62361972174583 77.97942495263507, 159.52858373266147 -0.11080325496365301 M28.391571284045376 162.56684557260363 C83.40802070313724 98.48058580491444, 136.84605801095157 36.39318477443734, 169.6216096351148 -0.4895622315758935 M26.566733960203432 163.62109039810852 C81.14750911598202 100.09121389130937, 135.65213976027152 37.00016773285454, 169.32173211635623 0.29327697329236646 M39.10965702800331 163.56011826370593 C66.41953613275935 130.69630806419036, 97.31779426376582 98.78373481610402, 180.04906889068772 1.5641760267200084 M37.64143790861989 164.07331050656475 C72.95833912291913 120.70594247150615, 110.20349256856537 77.7593740948654, 180.8358288478812 0.22570491314201394 M48.283803579914135 165.63440524832018 C77.64061780333274 128.14911660296883, 110.65638540360838 90.84730221523841, 190.036235109487 0.7769281826294362 M48.33907189783531 164.53459882114583 C91.9584243108242 115.38143084785683, 134.87495127290936 66.10557214712203, 190.19997269413096 0.536865330503258 M57.55689823411377 163.96755221648547 C92.49847341700149 124.39267124865037, 129.76716194473093 83.19411080240788, 200.6761143295985 -0.885916517558534 M58.71791716974419 164.6500276327698 C91.5653842173349 126.17203726070242, 124.50739469163389 88.02352197065298, 201.7650937751249 0.21554808816908183 M71.29643133980169 162.26400377492544 C101.92103630576209 125.73059100177616, 133.13704707124975 87.51221252086238, 208.40288930671562 5.467703485986599 M69.42953297615041 164.60883756423522 C108.20647929372798 121.61986319728307, 145.28903083620148 79.44621859850274, 207.35388590615403 5.090367777272101 M80.4580779524722 165.61303249120255 C114.27313932894407 121.77296840065014, 149.52241959387504 83.6817754190145, 209.43016869720938 17.66636338559205 M80.66939447933964 164.07310090984691 C105.69828116778068 135.18744036848355, 130.9639255941335 105.13533321120815, 208.16513148934516 17.055302571591383 M90.02851028309263 162.85067476703216 C121.97972319059564 129.55978070865203, 148.8745596341535 94.86464917084284, 206.81750887416234 30.944223675820965 M91.73514108021803 163.62588280717273 C132.17237845283782 113.91282947468069, 175.47903604352334 64.24937769325658, 208.003750024996 29.99081556772812 M99.91192517291717 164.06943238404827 C128.1199078516754 133.8938584743381, 152.58617545460856 105.68972177550152, 207.25470905172568 40.01417342833014 M101.7162805567678 164.10816623800682 C138.58724791249196 124.2072872784895, 173.22523396522863 83.31790778035868, 208.03531880936515 40.82778444307627 M111.13572740710201 163.12568961959465 C143.03680394829507 124.50490320991909, 178.03041878204027 88.0011224848903, 207.45081464005557 55.20720629546334 M111.28026286016079 163.99654421992733 C137.7543638488347 135.4421478716544, 164.07054236242465 105.1429408749236, 207.19584248112437 53.44612252771397 M122.98727836681299 165.62077470623785 C148.43367889808545 136.57416493884347, 173.5894331233134 108.01513912546226, 209.09338667430836 64.78205030456432 M122.71484610007845 165.0428271632352 C140.11303533199734 143.4804192799608, 158.7274765978392 122.84869025132602, 207.16644286644566 65.27750096421936 M131.2006321451873 163.319621510876 C156.00135931655973 138.09351832930017, 179.54911286278218 110.74078934580935, 207.75494278564975 79.11737743819957 M132.2710826606736 165.0364545500629 C156.47996441235568 137.6910104710609, 177.2497182130063 112.32970254286293, 208.43604995001033 78.84130828789328 M141.58268137339073 166.11652701607574 C159.27657743361732 142.90356756234564, 180.94194576861395 123.61412804926644, 207.07969331721694 89.13046531326735 M142.94571502662765 165.11400241571147 C166.56796351147977 136.71294746297434, 192.03217353405918 108.91982748968849, 206.6443879909712 90.5070621058684 M152.19989333657952 164.4538129991807 C164.5391499669776 150.96333383046573, 177.61632076440003 135.4048185499797, 208.40968715017578 102.24295466233414 M154.82416189911248 164.52159502775893 C164.974147686061 150.62818204093583, 176.65151476949572 139.42677493364113, 207.3643713490098 101.80391657844555 M166.28475094490992 165.51403561253468 C176.20994303792847 151.22680223528627, 184.36591413820634 141.45422278020123, 208.97154781968248 112.7995110127437 M165.14320916679995 164.15086446628342 C180.795311207545 146.89562710079628, 197.52495059134003 127.55038956271977, 208.44509060029787 114.18307409820287 M175.79825273353816 162.6574853834815 C181.22085747270802 154.35730702954905, 192.63348094226043 145.56204946539438, 206.12685545690275 127.01474384706258 M176.00975990586193 164.32020062386314 C180.83760042513336 156.86590969028717, 187.75611951176853 150.05567236053878, 207.4184444795168 127.30845445044129 M186.99241286262045 162.85968721436475 C191.69067946386397 157.46064505578912, 199.7545397983859 151.0588809586055, 207.55888290497387 137.3918682821889 M185.11958437997023 163.5560012055761 C191.53331941500016 157.52186009552526, 198.1487552462905 149.35763647143511, 207.84212599581952 139.81910649229332 M196.04973910201352 164.1531998532175 C199.2433760729632 162.17262386881163, 200.88621837234237 159.31664276809136, 208.70977298952548 150.78731826658625 M197.32755168654967 164.34446799771888 C199.93637503811155 160.8522729316995, 202.76312541122533 156.43895397365074, 208.01555819627737 150.7450333874513" stroke="#7cb7e6" stroke-width="1" fill="none"></path><path d="M-1.765256824298378 -1.1816729070083059 C66.72140613132835 -1.9396464492278604, 133.44183177191982 0.29393822811181214, 200.4357445767488 -0.29217095963284145 M0.2155959594949167 0.6240783791250962 C48.626625061946505 1.0290529851832053, 98.53107003753462 0.07055003078747009, 201.1529073721494 0.3805626236893553 M203.89538497664034 0.1282074060291052 C202.84489188673905 42.665960563812405, 203.77561668637208 85.30230647977442, 203.73217607475817 160.8713046517223 M202.74474419187754 -0.4531138790771365 C203.22845463455656 62.379217515606435, 203.1120917350147 123.01309786811471, 202.0769604248926 159.95666999090463 M203.59598098751465 159.2550803193142 C153.49007547721772 158.10676790026824, 102.85004702966873 161.22958094549276, 0.21315733874032866 158.47266793440664 M202.85518852017586 158.48104140867204 C152.5615765664629 157.25991002666163, 103.72936543254167 157.98836608533276, 0.6373604305804292 159.49993974790564 M1.6244834158569574 158.43896683119237 C-1.4295283936243504 105.30738048320634, -0.7597632192354649 48.53891326058654, -0.16926061175763607 1.621009847149253 M0.219545672647655 158.689164374955 C-0.8230575475934894 113.3536694935523, -1.030467734122649 67.61421819888055, -0.14130183029919863 -0.7806503726169467" stroke="#000000" stroke-width="2" fill="none"></path></g><g transform="translate(113.5 229.5) rotate(0 71.5 46)"><text x="0" y="18" font-family="Helvetica, Segoe UI Emoji" font-size="20px" fill="#a61e4d" text-anchor="start" style="white-space: pre;" direction="ltr">- node_name</text><text x="0" y="41" font-family="Helvetica, Segoe UI Emoji" font-size="20px" fill="#a61e4d" text-anchor="start" style="white-space: pre;" direction="ltr">- schema_name</text><text x="0" y="64" font-family="Helvetica, Segoe UI Emoji" font-size="20px" fill="#a61e4d" text-anchor="start" style="white-space: pre;" direction="ltr">- alias</text><text x="0" y="87" font-family="Helvetica, Segoe UI Emoji" font-size="20px" fill="#a61e4d" text-anchor="start" style="white-space: pre;" direction="ltr">- state</text></g><g><g transform="translate(244.5 240) rotate(0 56.5 -92.42817366400831)"><path d="M0 0 C10 -7.166666666666667, 48.666666666666664 -18.5, 60 -43 C71.33333333333333 -67.5, 59.166666666666664 -123.35727544533056, 68 -147 C76.83333333333333 -170.64272455466943, 105.5 -178.5469561066805, 113 -184.85634732801662" stroke="#000000" stroke-width="1.5" fill="none" stroke-dasharray="12 8"></path></g><g transform="translate(244.5 240) rotate(0 56.5 -92.42817366400831)"><path d="M93.61522572119438 -161.9602663061527 C99.1228358080138 -168.46551031730053, 104.63044589483323 -174.97075432844835, 113 -184.85634732801662" stroke="#000000" stroke-width="1.5" fill="none"></path></g><g transform="translate(244.5 240) rotate(0 56.5 -92.42817366400831)"><path d="M83.43308419137202 -179.77722441500245 C91.83364854159946 -181.2203069180831, 100.23421289182689 -182.66338942116377, 113 -184.85634732801662" stroke="#000000" stroke-width="1.5" fill="none"></path></g></g><g><g transform="translate(271.5 267) rotate(0 104.57600000000002 78.5)"><path d="M0 0 C32.166666666666664 3, 159.83333333333334 -8.166666666666668, 193 18 C226.16666666666666 44.16666666666667, 198 133.83333333333334, 199 157" stroke="#000000" stroke-width="1.5" fill="none" stroke-dasharray="12 8"></path></g><g transform="translate(271.5 267) rotate(0 104.57600000000002 78.5)"><path d="M192.41285845041668 127.73210690524935 C193.73962495470195 133.62717685582209, 195.06639145898725 139.52224680639483, 199 157" stroke="#000000" stroke-width="1.5" fill="none"></path></g><g transform="translate(271.5 267) rotate(0 104.57600000000002 78.5)"><path d="M212.7669958628395 130.34536016164242 C209.99408004830005 135.71407480897804, 207.2211642337606 141.08278945631366, 199 157" stroke="#000000" stroke-width="1.5" fill="none"></path></g></g><g transform="translate(518 167.5) rotate(0 110.5 86.5)"><path d="M0 0 C0 0, 0 0, 0 0 M0 0 C0 0, 0 0, 0 0 M0.5685626038442955 12.465628761469901 C2.7980767858994797 6.197339805465968, 8.726709815232041 3.0662148743557953, 11.365697802555692 1.2972380633547664 M-0.1124612561334265 12.36288377684313 C3.278992660694551 8.897340413198798, 5.767862401567859 5.4736192920069415, 10.612207664501799 -0.8252159361645817 M0.6630803721211169 25.512999845384716 C9.954396100070035 14.534940368071208, 15.131888374436937 7.149929388911545, 22.8955500035527 0.8914432874112848 M0.23540074398734312 24.989670199989437 C7.507054855097599 16.368033574406446, 15.23495084247164 6.679188718323211, 21.325926443839336 -0.40740763636534183 M1.4629606845695058 34.89583861623083 C11.374942273019913 23.441439076072598, 18.397439674603152 14.597622847774009, 32.377791718995965 1.079900346814025 M-0.8739739713352641 36.72306343708311 C7.931064827565553 26.915065913068872, 17.244124750317162 17.590278737778316, 32.58290361002723 0.03599231701933192 M0.9145665299146586 48.34177786544792 C13.481357578087314 29.751451790660887, 31.537768439247436 10.760614757670751, 44.08421556334548 0.7639018398105151 M-0.0931893158704824 48.95934597090714 C10.771202917076034 38.327141993419225, 20.533790401181026 25.143721501302526, 42.194098305512 -1.0862510401428693 M-0.050270495833942164 59.673886548258764 C13.840330226513752 44.065383105579556, 30.949958563524422 23.665558493421948, 53.16521216160125 0.44930714140075523 M0.9871253688911708 61.809672694184286 C10.937456011509543 48.88651710519517, 20.979722878478377 37.447768253909516, 53.943690217793645 0.3635576046480544 M-0.7811597676762929 71.89802403966335 C26.02928613911593 44.706412233518016, 48.84132279238165 17.984436147592916, 63.83367213876326 0.5794756265847454 M-0.5988502295503011 72.16173891941456 C13.16757765975918 57.19331678425469, 29.30902826499679 40.99922237302102, 64.58460903437216 -0.9456364361078968 M0.43478933938760633 83.9575497146617 C20.09602692054375 63.53279825626035, 42.47359294986151 36.36497045700293, 75.36498611983153 -0.4647333296375109 M1.151813576305102 85.43448995909796 C16.96173555281491 66.62114873250262, 34.06266161250761 47.21214765999212, 74.83853444274756 -0.8136378499107195 M-0.2830915786327495 97.48803252847657 C32.50616459239224 61.32857322475974, 62.71192069188253 28.400559595675432, 84.09704472980604 -0.3649603522660243 M-0.44526255503312484 97.33283070595726 C24.532441194726225 68.88645183537915, 49.41634572669381 39.42899607510358, 84.39589613041983 -0.5090013242604243 M0.21520616124364977 111.79841269566239 C38.517110960139114 67.08620061421219, 74.3795250903861 27.167605641222707, 97.43023859368682 1.1346539336992123 M0.8624691219160283 109.8287873120469 C32.71637290341484 72.1068820298509, 65.86193998536179 35.401837368170234, 94.91587378488899 0.23096845334299587 M-1.825985844973701 122.399259171442 C42.12459058024332 74.58719237085313, 86.98106176587937 23.288882769815586, 107.82745833647382 0.227468903258206 M-0.6718707343379435 122.68976467008969 C26.659406315769164 90.48984226108722, 53.705357287189386 58.59466493011682, 107.02639709365499 0.20021679539954818 M-0.4437769722847946 131.98393133081532 C31.34305152416363 96.7702379757049, 62.33601648490877 61.511815937757746, 118.15803555417659 -0.20094648836627726 M0.8296475637049667 133.45970809258557 C44.64066633462207 83.97489597485225, 88.96867337415134 32.46575214954909, 116.66808671522739 0.4786485946319985 M1.3872234043103475 145.18328854878243 C41.22308322337002 96.55847025132444, 84.86409707276837 48.34837361634018, 126.3219789297761 0.40834797338020934 M1.2137037035447378 145.2138128920346 C49.69079218263062 88.32314892049679, 99.92593512162722 28.944256702166342, 126.71849039508714 0.4132900030947937 M0.9429280578981774 159.2591224613325 C48.12491445257055 101.50840394099818, 97.6343204589378 44.00160412722314, 139.10607848416535 -1.0101632055828305 M0.5373329009797113 158.36948685005584 C36.083808825614234 119.38342138249367, 70.49371826645329 78.58992957805528, 137.99497558020138 1.0484915489909317 M0.9732884537510558 171.312058869484 C53.82049080493219 109.28180804983336, 104.8102549104202 46.44033941196497, 149.6049067673893 -0.847542404713939 M-0.6969509866530136 170.45074632464883 C36.990683668889176 130.08409405061872, 71.70688430901382 88.97632707935456, 147.32358084201857 -0.3059515751720293 M3.846536999937813 179.04019497632694 C36.0111845807846 141.62791269699784, 67.3672836786513 103.78811158511394, 157.86845335669048 -1.0255417504522935 M4.599604480210702 178.4184232289585 C49.59567913583867 124.58563901443189, 96.29608844713358 70.06488709653242, 158.60666946623965 0.21931429728041713 M15.315676717189245 177.89123331773496 C48.68370964190653 138.8115623190162, 81.44943452905972 98.6764626176116, 167.96998594332666 -0.0104653370227627 M15.753914883226447 176.72325009950697 C68.38306702383584 117.21392444754457, 121.70602661629691 57.6178995268089, 169.62410614354738 0.018399516583818998 M24.691873590934804 178.28371278780514 C77.81513374952273 117.46029000983022, 131.2040081990428 56.712178231187984, 179.8004579130195 -1.3547333964936221 M25.769648557604484 176.9881528998651 C76.68143019210068 122.07355857758797, 124.71747278670433 65.15891534582092, 179.89337341643613 -0.46707597102195875 M36.52029078523703 178.74970184747488 C97.76968334221317 108.9042455340071, 159.28991313528337 37.26132124537181, 190.80372867983152 1.4166622820726273 M36.8848668588136 176.90931746206397 C89.19667674471685 117.49337952086748, 141.58395011574603 57.49699527544624, 191.41582251537477 -0.35849020850566626 M46.14069771415837 177.76866670768177 C82.34046007217954 138.66836690906288, 115.72949964867111 102.85534258061672, 201.0011679078251 -0.4233203403864991 M47.1031500173225 177.99659274313498 C101.75846452351284 112.20314569916725, 157.7804480760565 48.31666919791802, 201.11668754583192 0.8282618861639607 M58.20346204176138 178.81728732936327 C109.87632827074847 121.36485088212662, 157.49098164874403 63.00147378831961, 211.30838351106286 1.1783944470664696 M57.76832113859997 177.99876682510927 C104.94308362839845 123.9158851278251, 150.50986815712807 69.44097030866453, 211.78635348827638 0.6578605200181439 M68.15306574718053 178.58892891569644 C106.41795472484338 133.24260983065608, 146.19907544680495 88.82683154962217, 221.19445703581536 -0.1743545471647634 M67.67155054653182 176.7938464010904 C118.818520368639 117.35687259497031, 169.4855659598021 60.953889243204436, 222.16678940917518 0.42100310543765884 M77.32439333354094 178.81220981585813 C110.97668045571264 143.150189432766, 140.32393989048012 107.16575929849252, 222.51471649364257 12.338789624097858 M78.94726468645 177.23264928872516 C129.69835040748796 118.87319021262346, 180.24148703562295 60.97011254418444, 221.58610252608386 13.370623197809861 M88.06832127800682 177.64046642510175 C118.43722579535071 142.87377021151147, 145.07127137554002 111.65545628317614, 221.90885223145028 25.258775932567485 M89.4870519543467 177.5884728272876 C138.49843664412563 123.23604800257797, 185.46189064366794 67.97699080206182, 221.7770085350336 25.38526540204727 M98.32850707671574 178.63488520128425 C147.70866985253846 126.47194284769985, 192.42271306731374 73.5421175648716, 223.62099154213243 36.83438884578919 M100.60433964035443 177.34856460435088 C133.2323814351147 140.12424861390923, 164.60421025308727 103.79747222744099, 221.38763163903528 38.31850644313073 M111.23878834294025 177.72049802240574 C133.27276037004256 151.2486354784195, 157.37272877787902 125.30769564262559, 221.52853000466507 48.6036923528188 M110.7874337499017 176.38293745812618 C138.10478140666922 143.17663295167674, 166.34258561824032 111.02024380614881, 220.9609577984063 49.32572403554852 M120.51582986307102 176.69032715212097 C156.08513362632706 139.39225524338246, 189.0156088646106 101.2663474551137, 220.406344346104 60.55994654344211 M122.42533132624584 176.2354560638546 C146.8625353110202 147.58345727353162, 172.67189520159548 118.39765727723784, 221.92170461207422 62.51534519241939 M133.12252226210802 177.23773196542996 C163.06110030227612 146.392758826648, 189.09179202985666 111.75360087988963, 220.7798251914491 73.83401079265921 M132.89596205688684 176.95006573403614 C156.1519504029344 149.35820801579402, 179.38765613677194 123.55819252261605, 222.36655176753897 74.71256522624343 M143.0842561650513 178.99357183733272 C165.1454348166002 151.55216683847556, 189.46627787694558 124.38702014422192, 220.23686316570053 85.49424447547007 M143.54600562932475 178.10196178117084 C159.81292018347062 158.41523590885723, 175.36064123151058 140.618422691761, 221.36092895230064 85.27382944952059 M153.48892219690083 177.52620614282918 C177.71876461912117 151.52160692201664, 199.7897065355986 123.48273406056379, 222.77178986486769 99.30121654709743 M152.69089173105954 177.7975895177586 C171.78139349639818 155.28203154065588, 192.38336365663443 134.5012190927409, 221.28295682486868 97.84154275497363 M162.48691098265658 178.34149425691945 C179.78904192857317 160.74093905917752, 194.2834105867437 141.36848836088035, 223.40961397193158 108.68886722209578 M164.61480004959117 177.67464425629956 C176.47196540993443 162.3876117058651, 190.15581908580336 147.6501853793505, 221.44768313072407 110.32523129465704 M173.29111314731858 178.8827955546034 C185.84104566248664 164.72306838682763, 199.48601196974647 148.56865365325336, 222.26966708290172 123.29276545568784 M174.57066027241967 177.90207130929358 C187.28605025304313 162.5674351364234, 198.1120240611984 149.3943893953874, 221.17072852837634 122.42979996129354 M184.17691931588686 178.53096941088117 C200.93352217693433 161.78917542522836, 214.89574703238065 143.77666072533452, 221.18983982277814 135.93127062287368 M185.78015208704508 176.18006598924077 C197.28918064009386 164.24381848685843, 207.09382476190882 151.5008461943568, 221.39252270532552 135.6366940673832 M194.4822201133614 176.60437520075266 C204.89657156214687 167.84343832394273, 214.51702234496548 153.67915442904604, 221.07052281656078 145.36024209865332 M196.43370518096737 176.74007360864107 C206.20442138050632 166.63580013794385, 217.04080909534275 153.5757841947168, 223.02224534907154 146.958608925426 M206.60740616474214 178.3588722992179 C212.11906869233442 170.3386479005817, 217.75197695642012 166.5389137130517, 223.21854766025916 159.0277488382494 M206.6904992416865 177.3447894799945 C209.6111191374803 172.54864475681669, 214.51276553842666 168.68471218112393, 221.28176711812392 158.69419942814466 M216.80046775339918 176.933429260416 C218.4802068911298 175.6879081944593, 219.80330380228833 173.55659108621617, 221.87015556494478 171.77309451163129 M217.38255130498484 176.68854785249948 C218.617568462844 175.06961789899447, 220.27605642306932 173.2594255949642, 221.64561751733308 171.8969982466133" stroke="#e695b3" stroke-width="1" fill="none"></path><path d="M-0.5863229517701147 -0.5375408952162741 C62.117987168132515 -1.1755129564054434, 119.66968961293749 1.0523016318239262, 221.59112892704772 0.714491916346836 M-0.1709000900718212 0.5770577431182383 C80.071471004996 1.4784432006155215, 160.7762880977689 1.849977704083844, 220.906088728161 -0.7419149449142931 M219.51664549112328 0.9945020079612732 C222.83380298286684 57.529231402277944, 221.3826292005182 113.64495444893836, 221.8486710190774 171.1987618803978 M220.93538138270387 0.7947244942188263 C221.82786278694877 56.14375579059124, 221.5995464798809 110.74770041704178, 220.61078402400025 173.15562251210213 M219.69559428706663 174.47530618967753 C153.19661835653775 172.4952284761497, 87.07612011966124 172.68784776652748, -1.1692061186860083 171.89230250768594 M221.21936873587126 173.17081883734127 C163.13165446573933 172.80905282508283, 103.57878435893753 174.21085545403943, -0.5855604082984446 172.94240462577358 M0.4610005021095276 173.9552373290062 C-1.428721858561039 126.44394028484821, -0.6500372424721719 77.80660564303398, 0.8576012253761292 1.2687501311302185 M-0.9899516403675079 173.0443678200245 C-0.1599723169207572 123.4641881853342, 0.2790087392926217 71.02368750572204, -0.00015690922737121582 0.42583468556404114" stroke="#000000" stroke-width="2" fill="none"></path></g><g transform="translate(569.5 183.5) rotate(0 63 11.5)"><text x="63" y="18" font-family="Helvetica, Segoe UI Emoji" font-size="20px" fill="#000000" text-anchor="middle" style="white-space: pre;" direction="ltr">Mapping table</text></g><g><g transform="translate(635 169.5) rotate(0 0.5354294156553578 -0.02356506586074758)"><path d="M-0.37287315130233767 1.0401134848594664 C-0.5066618323326111 0.9266914725303649, -0.8880152106285095 -0.9822322487831116, -0.681972348690033 -1.0872436165809631 M1.6322297149244696 0.5405691190715878 C1.880180687541142 0.5719682984706013, 1.852157934838906 0.25567260882817217, 1.6719467046204954 -0.12062126406468443" stroke="#000000" stroke-width="2" fill="none"></path></g><g transform="translate(635 169.5) rotate(0 0.5354294156553578 -0.02356506586074758)"><path d="M1.6719467046204954 -0.12062126406468443 C1.6719467046204954 -0.12062126406468443, 1.6719467046204954 -0.12062126406468443, 1.6719467046204954 -0.12062126406468443 M1.6719467046204954 -0.12062126406468443 C1.6719467046204954 -0.12062126406468443, 1.6719467046204954 -0.12062126406468443, 1.6719467046204954 -0.12062126406468443" stroke="#000000" stroke-width="2" fill="none"></path></g><g transform="translate(635 169.5) rotate(0 0.5354294156553578 -0.02356506586074758)"><path d="M1.6719467046204954 -0.12062126406468443 C1.6719467046204954 -0.12062126406468443, 1.6719467046204954 -0.12062126406468443, 1.6719467046204954 -0.12062126406468443 M1.6719467046204954 -0.12062126406468443 C1.6719467046204954 -0.12062126406468443, 1.6719467046204954 -0.12062126406468443, 1.6719467046204954 -0.12062126406468443" stroke="#000000" stroke-width="2" fill="none"></path></g></g><g transform="translate(553.5 222) rotate(0 39 23)"><text x="0" y="18" font-family="Helvetica, Segoe UI Emoji" font-size="20px" fill="#a61e4d" text-anchor="start" style="white-space: pre;" direction="ltr">- Shard</text><text x="0" y="41" font-family="Helvetica, Segoe UI Emoji" font-size="20px" fill="#a61e4d" text-anchor="start" style="white-space: pre;" direction="ltr">- user_id</text></g><g><g transform="translate(548.5 236) rotate(0 -124 -1)"><path d="M0 0 C-41.333333333333336 -0.3333333333333333, -206.66666666666666 -1.6666666666666667, -248 -2" stroke="#5f3dc4" stroke-width="1.5" fill="none" stroke-dasharray="12 8"></path></g><g transform="translate(548.5 236) rotate(0 -124 -1)"><path d="M-248 -9.500000000000005 C-246.47337942699448 -9.595755555389877, -244.4101026186162 -8.778273101308677, -243.17909292735095 -7.745333323392339 C-241.9480832360857 -6.712393545476002, -240.8929890950308 -4.884916886400703, -240.61394185240843 -3.3023613325019787 C-240.33489460978606 -1.7198057786032552, -240.70132495950853 0.35832400193395286, -241.5048094716167 1.7500000000000022 C-242.3082939837249 3.1416759980660514, -243.92479199116985 4.498078879911931, -245.43484892505748 5.047694655894317 C-246.9449058589451 5.5973104318767035, -249.0550941410549 5.597310431876704, -250.56515107494252 5.047694655894318 C-252.07520800883015 4.498078879911932, -253.6917060162751 3.141675998066052, -254.4951905283833 1.7500000000000022 C-255.29867504049147 0.35832400193395264, -255.66510539021394 -1.7198057786032557, -255.38605814759157 -3.302361332501979 C-255.1070109049692 -4.884916886400703, -254.0519167639143 -6.712393545476001, -252.82090707264905 -7.745333323392338 C-251.5898973813838 -8.778273101308676, -248.80348451210818 -9.232555553898727, -248 -9.500000000000005 C-247.19651548789182 -9.767444446101283, -248 -9.475000000000005, -248 -9.350000000000005" stroke="none" stroke-width="0" fill="#5f3dc4"></path><path d="M-248 -9.500000000000005 C-246.47337942699448 -9.595755555389877, -244.4101026186162 -8.778273101308677, -243.17909292735095 -7.745333323392339 C-241.9480832360857 -6.712393545476002, -240.8929890950308 -4.884916886400703, -240.61394185240843 -3.3023613325019787 C-240.33489460978606 -1.7198057786032552, -240.70132495950853 0.35832400193395286, -241.5048094716167 1.7500000000000022 C-242.3082939837249 3.1416759980660514, -243.92479199116985 4.498078879911931, -245.43484892505748 5.047694655894317 C-246.9449058589451 5.5973104318767035, -249.0550941410549 5.597310431876704, -250.56515107494252 5.047694655894318 C-252.07520800883015 4.498078879911932, -253.6917060162751 3.141675998066052, -254.4951905283833 1.7500000000000022 C-255.29867504049147 0.35832400193395264, -255.66510539021394 -1.7198057786032557, -255.38605814759157 -3.302361332501979 C-255.1070109049692 -4.884916886400703, -254.0519167639143 -6.712393545476001, -252.82090707264905 -7.745333323392338 C-251.5898973813838 -8.778273101308676, -248.80348451210818 -9.232555553898727, -248 -9.500000000000005 C-247.19651548789182 -9.767444446101283, -248 -9.475000000000005, -248 -9.350000000000005" stroke="#5f3dc4" stroke-width="1.5" fill="none" stroke-dasharray="12 8"></path></g></g><g transform="translate(155 772) rotate(0 26 11.5)"><text x="26" y="18" font-family="Helvetica, Segoe UI Emoji" font-size="20px" fill="#000000" text-anchor="middle" style="white-space: pre;" direction="ltr">Users</text></g><g transform="translate(130.5 811) rotate(0 41.5 46)"><text x="0" y="18" font-family="Helvetica, Segoe UI Emoji" font-size="20px" fill="#364fc7" text-anchor="start" style="white-space: pre;" direction="ltr">- id</text><text x="0" y="41" font-family="Helvetica, Segoe UI Emoji" font-size="20px" fill="#364fc7" text-anchor="start" style="white-space: pre;" direction="ltr">- name</text><text x="0" y="64" font-family="Helvetica, Segoe UI Emoji" font-size="20px" fill="#364fc7" text-anchor="start" style="white-space: pre;" direction="ltr">- birthday</text><text x="0" y="87" font-family="Helvetica, Segoe UI Emoji" font-size="20px" fill="#364fc7" text-anchor="start" style="white-space: pre;" direction="ltr"></text></g><g><g transform="translate(609 275) rotate(0 -199.06399999999996 134.5)"><path d="M0 0 C5.166666666666667 35.833333333333336, 56 171.5, 31 215 C6 258.5, -72.16666666666667 252, -150 261 C-227.83333333333331 270, -388.3333333333333 267.6666666666667, -436 269" stroke="#000000" stroke-width="1.5" fill="none" stroke-dasharray="12 8"></path></g><g transform="translate(609 275) rotate(0 -199.06399999999996 134.5)"><path d="M-407.90304776292254 258.4851878291912 C-418.7847900239981 262.5574969893061, -429.66653228507363 266.62980614942103, -436 269" stroke="#000000" stroke-width="1.5" fill="none"></path></g><g transform="translate(609 275) rotate(0 -199.06399999999996 134.5)"><path d="M-407.7176948886304 279.00555933406 C-418.67122295011507 275.1304800396068, -429.6247510115998 271.2554007451536, -436 269" stroke="#000000" stroke-width="1.5" fill="none"></path></g></g><g transform="translate(369.5 211) rotate(0 49 11.5)"><text x="0" y="18" font-family="Helvetica, Segoe UI Emoji" font-size="20px" fill="#5f3dc4" text-anchor="start" style="white-space: pre;" direction="ltr">foreign key</text></g><g transform="translate(376.5 510) rotate(0 75 11.5)"><text x="0" y="18" font-family="Helvetica, Segoe UI Emoji" font-size="20px" fill="#000000" text-anchor="start" style="white-space: pre;" direction="ltr">contains value of</text></g><g transform="translate(155.5 123.5) rotate(0 75 11.5)"><text x="0" y="18" font-family="Helvetica, Segoe UI Emoji" font-size="20px" fill="#000000" text-anchor="start" style="white-space: pre;" direction="ltr">contains value of</text></g><g transform="translate(328.5 280.5) rotate(0 75 11.5)"><text x="0" y="18" font-family="Helvetica, Segoe UI Emoji" font-size="20px" fill="#000000" text-anchor="start" style="white-space: pre;" direction="ltr">contains value of</text></g><g><g transform="translate(648 451.5) rotate(0 -234.75 187.75)"><path d="M0 0 C-9.75 53.75, 19.75 259.9166666666667, -58.5 322.5 C-136.75 385.0833333333333, -401 366.6666666666667, -469.5 375.5" stroke="#000000" stroke-width="1.5" fill="none" stroke-dasharray="12 8"></path></g><g transform="translate(648 451.5) rotate(0 -234.75 187.75)"><path d="M-441.6712176296885 364.29469448047763 C-449.0545091569421 367.26758909734156, -456.4378006841957 370.24048371420554, -469.5 375.5" stroke="#000000" stroke-width="1.5" fill="none"></path></g><g transform="translate(648 451.5) rotate(0 -234.75 187.75)"><path d="M-440.9792843557543 384.8042344736189 C-448.5461536267583 382.3357155624237, -456.11302289776233 379.86719665122837, -469.5 375.5" stroke="#000000" stroke-width="1.5" fill="none"></path></g></g><g transform="translate(369.5 775.5) rotate(0 75 11.5)"><text x="0" y="18" font-family="Helvetica, Segoe UI Emoji" font-size="20px" fill="#000000" text-anchor="start" style="white-space: pre;" direction="ltr">contains value of</text></g></svg>