<svg version="1.1" xmlns="http://www.w3.org/2000/svg" viewBox="0 0 1049 962" width="2098" height="1924">
  <!-- svg-source:excalidraw -->
  
  <defs>
    <style>
      @font-face {
        font-family: "Virgil";
        src: url("https://excalidraw.com/FG_Virgil.woff2");
      }
      @font-face {
        font-family: "Cascadia";
        src: url("https://excalidraw.com/Cascadia.woff2");
      }
    </style>
  </defs>
  <rect x="0" y="0" width="1049" height="962" fill="#ffffff"></rect><g transform="translate(10 10) rotate(0 514.5 471)"><path d="M0.019371564686298373 0.6847989723086357 C389.8109586513601 1.7447576305940744, 778.5907857893035 0.9794769547060128, 1027.7677473142744 -0.46939266473054886 M-0.7807944215834142 -0.1275242529809475 C381.9226927713491 7.6684505512341845, 765.4340008566156 8.375950126849114, 1029.2541985355317 0.017508653551340105 M1027.732631881535 0.473553578555584 C1037.5214969731421 326.15551436338575, 1034.6417100525946 648.9764567766339, 1029.1274019792677 941.4209412261844 M1028.869659694284 -0.4568972073495388 C1035.1738497834654 297.4825304878876, 1035.851304660365 595.656971763447, 1028.6103495202958 942.78169420138 M1029.679090745747 941.5893879577518 C674.0388755970635 934.2328040071652, 320.3018419058993 934.3254609533474, 0.5597571447491646 941.2371341869235 M1029.748521860689 942.6987373150885 C637.1637643246911 949.0500650511756, 244.42545072790236 948.7671456204429, -0.20804554596543312 942.6334507025779 M1.530671985447407 941.0674095317721 C1.7441577973514797 695.2637578895316, 2.642614895358682 447.94508396945895, 0.2820491388440132 -1.2060188606381417 M-0.23524796143174173 941.5456537283957 C-7.991692375525831 737.6589407267049, -6.679799937590955 533.7006495084613, -0.27718295231461526 -0.6982911787927151" stroke="#000000" stroke-width="4" fill="none"></path></g><g transform="translate(408 26) rotate(0 58 21)"><text x="58" y="33" font-family="Helvetica, Segoe UI Emoji" font-size="36px" fill="#000000" text-anchor="middle" style="white-space: pre;" direction="ltr">Node 1</text></g><g transform="translate(70 107) rotate(0 475 132)"><path d="M-0.03440384492278099 0.09200173243880272 C266.4040077799931 -1.9170361647382381, 533.3606361102313 -1.8610938915982844, 950.573340395838 0.5142474971711636 M-0.2616078216582537 -0.07115926556289197 C195.13223598543556 0.8883307239040732, 389.84938721135256 0.6144945284351706, 950.180107788369 0.3830523628741503 M951.2938608793334 1.1305799018312013 C946.7792838414906 72.9146675705919, 948.467422144153 147.34608706225683, 950.2518021081457 265.4019463044485 M949.5189674368016 -0.06698214582641907 C949.8495315461423 56.72377546489071, 949.2723973607564 113.1183958590715, 950.3577726169109 263.9271149066558 M950.073054317385 264.00495448932054 C755.5085150560365 263.07607936207205, 559.7806007031352 262.6433634931222, 0.6521684922277928 263.22528832778335 M950.3744683187455 263.9602141637355 C583.0195341257379 267.13775669503957, 215.33925012499094 267.6357275979594, -0.15056793279945851 263.9353158373386 M0.521106253600534 264.4016171513792 C-0.5915249855346454 182.99392601604265, -1.7238758570284378 100.34057292201847, -1.325227325993148 1.566978984741429 M-0.5442789462101082 263.580645891861 C1.3724767788890206 181.20283206163532, 0.3409912248560632 98.63151501621601, -0.01337849157314114 -0.047943527096100516" stroke="#000000" stroke-width="2" fill="none"></path></g><g transform="translate(341.5 113) rotate(0 115 21)"><text x="115" y="33" font-family="Helvetica, Segoe UI Emoji" font-size="36px" fill="#000000" text-anchor="middle" style="white-space: pre;" direction="ltr">public schema</text></g><g transform="translate(78 175) rotate(0 101 79.5)"><path d="M0 0 C0 0, 0 0, 0 0 M0 0 C0 0, 0 0, 0 0 M1.1107415759097443 11.186789332747042 C1.3410306525983542 8.24355872390808, 4.5333738756975475 7.100410448603988, 9.418792197060716 -0.18324478463383898 M0.29451282928694356 12.608961103528321 C3.9885261938564494 7.761886887123985, 6.61601565449143 3.877275426809452, 10.789091394049061 -0.07070696027132262 M2.0478282442501996 24.67753538833475 C4.997923813197334 17.27263375519152, 9.132996765062476 15.971460410087337, 22.916510284224415 0.665151591801596 M-0.14744390247396488 24.69574086619085 C7.773240544892886 14.725199331271762, 16.507016879810067 5.860299167136617, 21.164482028501 0.5092195667489889 M1.2340482807624618 37.0651944464085 C10.250389961265132 23.1790607652226, 22.936749743321982 9.708097998592155, 31.72656854563097 1.8860988450481777 M-0.452287311768206 35.959807398544 C8.79541708895582 27.191629762943762, 15.910094001056116 17.636725386374522, 31.25279542472849 0.38377976149909543 M0.9544954523443394 47.75079246857099 C14.182372783441208 28.533652886556194, 29.53103802992657 10.176362536689851, 42.64385985452287 1.3534812637000329 M-0.3725684648380465 49.04844615762018 C9.2813598889974 37.229886630078276, 18.051747385079643 26.719604427343707, 43.41357567123674 0.3056698588981277 M-0.6147969848384349 61.41573581238876 C11.797964546844414 45.34417942399599, 23.511345276603972 32.995441228262095, 52.93211712105638 0.7186050001009114 M-0.48674018950212883 60.84530349122028 C19.483006384526163 37.53644159308229, 39.211409449766634 16.355875396020842, 52.61798365669763 -0.8178530609757892 M-0.9757211206296077 72.22695563020555 C24.28734858718867 45.38147933112857, 48.120868946186405 14.210354399154141, 65.58358888038774 -1.1894894184054365 M-0.8158290970885744 72.37482397942243 C22.581365184296846 48.8802170274691, 42.6221855807999 24.269700633049972, 64.20729745728303 -0.15277410554453041 M1.598346580127071 86.02911744936512 C22.129324296884054 57.671913153213644, 46.00866910578757 31.909302698143378, 74.8815392926732 -0.9265270894752575 M0.2392553885744917 85.33821001480476 C20.10485904101365 62.864489701345896, 40.5051768006371 39.648450672059354, 74.61166233666482 -0.15707056972996725 M0.9689862485973464 96.53683075243399 C25.034974491095618 70.76541333523906, 45.5880317648316 42.97782353813717, 85.962748143069 -0.9954987357648122 M-0.03958799783156053 97.64938138266817 C20.478134596035247 73.21802762790779, 41.80378225659192 47.92708743038489, 85.06884074601487 -0.7994619359539854 M1.3194707279184783 111.75331065631033 C27.66592347599483 78.17159243900436, 56.006325728607486 45.01941448871435, 96.38001084173143 1.5908392950696566 M-0.344666247153846 110.19738694014521 C34.97757272900295 69.63676979803142, 69.2601677837463 28.092171063392, 96.34296232400507 -0.7781598741384528 M-1.2190886007437882 121.93613539356073 C23.455445081597144 94.19355470871325, 48.16575053943267 66.5085801766958, 107.66463842381668 0.7474650303719059 M-0.5600962497109947 122.15591209753683 C30.255260838902494 85.3882240648532, 61.25001697900601 50.34201040391565, 106.44327389680726 0.26038175829476273 M-0.3810057022331961 134.01590799152888 C34.46145686036973 94.97829228262376, 65.83691472800554 55.4741456967041, 118.23289852049055 1.5093004527084517 M0.5811813206688754 133.7456904974211 C39.47028601292588 88.6646276926585, 80.0141867246625 42.18973955025376, 116.68683044910284 1.257426496646552 M1.1404210836064834 147.78846585255857 C48.114535434974826 91.00160736812722, 95.21461730020296 36.37779138715415, 125.57275147489025 -1.5501268210225092 M-0.439907022342382 145.7704635948762 C39.248069568086834 97.7306166398285, 80.02505827078588 50.683292973697974, 126.04148124004467 0.504366948049487 M-1.2648925224816325 158.1873989475151 C53.93387317145004 95.61403261125089, 109.13466247717649 35.48107882723212, 136.06430483941313 -0.276001040501065 M-0.7925239868495793 158.2278984423643 C37.5956734906433 114.3673091582732, 77.88164120515678 69.76373564801263, 137.86472048404832 0.8768531442732648 M7.097626107495202 164.44909132409254 C60.339244081997236 100.03330614592882, 116.4730679902947 34.256285859276055, 146.44790321786027 0.9952734804415778 M5.612501982393168 164.79429492379913 C38.42975407542677 126.14884526336061, 71.96138394567926 87.65023336416712, 148.42599335152508 0.8839492143729673 M16.966060256110136 164.2402020123933 C53.21745304605508 121.28099590668788, 90.12465568994047 79.9164351663621, 157.5870948747699 -0.9019713388687209 M17.25730922852998 163.5919576906385 C62.283240439206864 113.3037395311038, 108.18770761306955 62.22388040673487, 158.7348632277431 -0.055785770304362714 M28.20323409217011 164.27404536158886 C66.6571652147459 120.43910784389973, 102.85517264650605 74.33941166459985, 169.688626943148 -1.0188269619326822 M26.52691230853212 164.22445297209887 C63.68638729510705 120.77090011400011, 101.25370956646154 77.94493012299972, 170.1586735773772 -0.14529808459900234 M39.0216611287611 162.53235074296828 C94.03811054785297 98.44609097527909, 147.47614785566728 36.35868994480199, 180.2516994798305 -0.5240570612112428 M37.196823804919156 163.58659556847317 C91.77759896069774 100.05671906167402, 146.28222960498724 36.96567290321919, 179.95182196107194 0.2587821436570171 M49.739746872719046 163.52562343407058 C77.04962597747509 130.661813234555, 107.94788410848156 98.74923998646867, 190.6791587354035 1.529681197084659 M48.271527753335626 164.0388156769294 C83.58842896763487 120.6714476418708, 120.83358241328112 77.72487926523004, 191.46591869259697 0.1912100835066646 M58.913893424629855 165.59991041868483 C88.27070764804846 128.11462177333348, 121.2864752483241 90.81280738560308, 200.6663249542027 0.7424333529941011 M58.96916174255103 164.50010399151049 C102.58851415553993 115.34693601822148, 145.5050411176251 66.0710773174867, 200.83006253884668 0.5023705008679229 M68.17099461168999 163.93416189523606 C102.16423745155751 125.4967241998633, 138.49220005802417 85.39955373341598, 207.3625122688795 3.5965420985167826 M69.34533457375919 164.62446773769616 C101.29699599437703 127.1743698628696, 133.32072985894263 90.0793073910755, 208.4639861910591 4.7106444301969965 M82.15682886561535 162.01836082458038 C109.905248572272 128.6599591690606, 138.34882104374714 93.3209926351067, 207.93280411657813 18.380691734228677 M80.03929783517651 164.67799051131595 C115.92573557396713 125.08165377598222, 149.95535643080672 86.48510928553756, 206.7429711321083 17.952698391016966 M91.08816779718794 165.57853766156722 C121.92983357158926 125.05567676682784, 154.3083525066664 90.2669169237278, 209.56331407807698 29.70722183952107 M91.29948432405538 164.0386060802116 C114.22404712535224 137.56345504016355, 137.35996260806652 109.96132077559409, 208.29827687021276 29.096161025520402 M100.65860012780837 162.8161799373968 C129.93127840212944 132.5228526885668, 154.15857382773578 100.89637606277522, 206.95065425502997 42.98508212974997 M102.36523092493377 163.59138797753738 C139.03401459589287 118.36415275401514, 178.47073877888613 73.15255010284935, 208.13689540586364 42.031674021657125 M110.54201501763286 164.03493755441292 C136.2255591484456 136.8054710993981, 158.16136857604798 111.51229354125617, 207.38785443259326 52.055031882259144 M112.3463704014835 164.07367140837147 C145.63161766577682 128.08725722512685, 176.78486945814424 91.20660592768546, 208.16846419023273 52.86864289700527 M121.10975822282724 163.8459043701821 C149.70736132267186 129.23327169067807, 181.29916510076242 96.64282693140952, 207.5839600209232 67.24806474939236 M121.25429367588602 164.71675897051477 C145.07268006822477 139.13738641599505, 168.8053206101859 111.81019988068184, 207.328987861992 65.48698098164299 M133.6173682115287 165.58627987660248 C155.84406470207253 140.28373026397907, 177.68060931354023 115.54301832721193, 208.57047302618548 77.57761833871608 M133.34493594479417 165.0083323335998 C148.3299212874008 146.1117618640999, 164.5646714726334 128.2175542735436, 206.64352921832278 78.07306899837111 M141.83072198990303 163.28512668124068 C163.3171722342043 141.8434266725057, 183.54143897914759 118.31393190702241, 207.88808816651732 91.15823589212859 M142.90117250538933 165.00195972042758 C163.90371129418375 141.2966143757403, 181.53548445569174 119.54514023728318, 208.5691953308779 90.8821667418223 M152.21277121810647 166.0820321864404 C167.0113548612057 146.3894562148305, 185.69045648319812 130.53532358392704, 207.21283869808457 101.17132376719636 M153.5758048713434 165.07950758607612 C173.2976192637319 141.26644344347972, 194.84372214339402 117.98059014351284, 206.77753337183884 102.5479205597974 M162.82998318129526 164.41931816954533 C172.80150138139547 153.58263791777537, 183.6018751849895 140.6432779686453, 208.54283253104342 114.28381311626313 M165.45425174382822 164.48710019812356 C173.52358276492 153.13330596111825, 183.01749469084126 144.4436766856108, 207.49751672987742 113.84477503237454 M176.91484078962566 165.47954078289936 C184.2463294519671 154.30659372363212, 189.77819351357275 147.55270410300196, 208.44863417155958 125.59507904689549 M175.7732990115157 164.1163696366481 C187.22963594442896 151.56601189508774, 199.82522841625772 136.9764513185068, 207.92217695217496 126.97864213235466 M186.42834257825385 162.6229905538461 C189.27570420459344 157.20448593653362, 198.1826733960456 151.29165389332366, 206.26000083777035 139.05560230099155 M186.6398497505776 164.28570579422777 C189.32040650741607 159.22148880465494, 194.11177086197765 154.8582630759547, 207.5515898603844 139.34931290437027 M197.4520194535331 163.02804805508842 C199.38893537255345 160.8101761979691, 204.2442248487491 157.6682537377501, 207.68406671918837 149.71994282420056 M195.8601152432804 163.61991494761807 C199.23174991963916 161.02324746995316, 202.69885387977726 156.5638706524499, 207.92482334640718 151.78309530278932" stroke="#e695b3" stroke-width="1" fill="none"></path><path d="M-1.3099321021687707 -0.6514957887391246 C67.86447759910884 -0.7343890205172494, 139.77637445544397 0.9444442167154594, 200.2984812647437 -1.7502295562158023 M0.6076801288723509 0.6334551972539562 C57.66491845795435 0.341835282961658, 115.16375502297804 1.1808621349780473, 201.82203548164716 -0.7102334104297857 M200.03125442005694 -1.3178894314914942 C203.45588799032382 51.682115219626574, 203.61404694828204 106.5791135078296, 200.25542611815035 158.6741492357105 M202.2404486341402 0.6960185812786222 C200.54880866081453 39.596285755652936, 201.48686527878976 77.14646004214883, 201.05525935720652 159.42443171609193 M203.69947874360878 159.1149559398249 C147.21135312109757 158.15619666336846, 92.6298556111146 157.274622588945, 1.553139048541597 160.67788735144217 M202.66776773010275 158.59371979021873 C123.52370524207427 159.5298202440548, 45.176252359299 158.6748522961742, 0.06900582615987472 159.85778896331271 M1.7799565885215998 159.28448452614248 C-0.1696623231749983 119.0600942022167, -2.1927510763984177 84.1105051325634, 0.2377289030700922 -0.5881199035793543 M0.9537697834894061 158.42121881712228 C0.7444135742541402 119.45726817464455, 1.0740278857108205 81.59982864819467, 0.710831712000072 0.5575699554756284" stroke="#000000" stroke-width="2" fill="none"></path></g><g transform="translate(95.5 193) rotate(0 70.5 11.5)"><text x="70.5" y="18" font-family="Helvetica, Segoe UI Emoji" font-size="20px" fill="#000000" text-anchor="middle" style="white-space: pre;" direction="ltr">mirrored table A</text></g><g transform="translate(548 177.5) rotate(0 101 79.5)"><path d="M0 0 C0 0, 0 0, 0 0 M0 0 C0 0, 0 0, 0 0 M-1.0374031937588348 10.89061266076523 C2.48621915364179 9.337529001988203, 4.331139017460709 5.640588355170802, 11.121012112450732 1.274291006763256 M0.6161441893409598 11.676342270940124 C2.110659153269638 8.992507451325764, 4.992869699508936 6.494521931878782, 9.83433191548003 0.7345030340447785 M1.0201618543080304 22.193226489885806 C7.8048175135971665 17.534038929894315, 15.856733677959769 8.476477585738767, 22.99251019982424 1.2570775108575347 M-0.18321655390790959 23.914083498246132 C5.350280961134 18.716720107612115, 9.903284405076858 13.44978266502652, 21.99772888542887 0.16825033204401763 M-1.6769360565674027 36.940247196519124 C7.757220685062826 26.863235525264884, 17.381019261928436 18.041484989052858, 31.067382838061846 -1.6671912240550633 M0.18487647631200943 36.493021818624186 C5.9816779549944865 28.83233882298863, 13.040604370336146 21.712688094422262, 32.62290084031115 0.7422953519284015 M-1.3200924769044704 47.11685969927244 C13.36359463348905 29.4692766434978, 30.769216680395175 14.95843307307809, 40.814124754253555 -1.7895438365311378 M-0.2788683837280459 48.04506141845964 C15.085740332583066 30.03399789556196, 32.14624988943483 13.35224791396437, 41.90980356148981 -0.2778397353039139 M-0.98522727553744 60.37517348071228 C18.403257934713224 39.29545502606834, 40.346058611302894 15.295426538723795, 54.432015733555616 -1.675471049226939 M-0.32380239934671806 60.01537208305339 C18.52574069171416 40.25533144182923, 36.11083416102033 18.58096301929561, 54.064949500136734 -0.32962441207480353 M-0.7386856673100581 74.16532281818239 C18.954866083815116 48.47360233424922, 43.07848313488953 25.41658858704165, 64.53635118612428 -0.40022920979871657 M1.0143993806278715 73.33367182998357 C16.60085907298484 55.05238913308624, 33.951510485145654 35.857605231916715, 63.821218294923796 -0.5800203483061424 M-0.7307972420660747 83.92767636402652 C25.524963992196092 54.41626799020121, 51.14753289357362 25.361280508208807, 73.72094214711579 -0.11134029090271724 M0.47642909486759777 85.9501864893283 C27.88394976024839 54.488746514482784, 53.827928608083994 23.567343995934664, 74.15660677202287 -0.14423140141980184 M1.7105650063602553 97.28504672581121 C19.61590465245691 72.41125811813609, 42.81574551863548 48.50740042901383, 84.12061527668641 1.4089081098047984 M-0.3579629594461693 97.37160928388849 C17.02369609320766 76.54307100377531, 35.42189790320124 56.23817464996475, 85.01297894510583 0.6955463836623323 M0.2667207961061919 110.46135214543463 C23.474563448244467 81.40658286212523, 48.05928348010653 55.370551720238744, 96.97371285999239 0.1809627696675875 M0.2730177893394554 110.42351250829668 C34.09276408079846 69.39724346476625, 69.32886083198551 30.28389212824817, 95.01481601534456 0.2713747745183923 M-0.7456716166625199 122.24737398046335 C25.646619568986285 93.48876693891036, 53.81493426091196 63.55573417071267, 106.18459280718994 1.4655048410294071 M0.09560601340584185 121.55985501035383 C34.45423898516126 83.20604721328826, 68.7138572964058 44.22521413506354, 106.18796637141091 0.31082335122651017 M1.812120678210377 134.41941838324107 C43.601645560132056 83.3120421392513, 89.63293802730685 34.786575477682774, 117.23006962444487 1.9556594314567732 M0.1434626014248721 134.625393870138 C29.63036106002557 100.45888687086394, 59.78784352704703 66.30097852721255, 117.02233656048628 0.4729290865875768 M0.8073462158811111 145.93152588111158 C41.27703663223155 97.08650046590269, 81.21400554199461 47.63017079959104, 127.34615052989437 2.1956572828478826 M-0.17963437043160013 145.39164398022737 C46.36742600373435 93.2126105267013, 91.46264229822057 41.78876919596841, 127.81487740422352 0.11060802523416413 M-0.25539732611734917 157.3046146478469 C40.095498104225896 115.61003066232114, 75.51190936716539 70.73708272599262, 137.19863325353177 0.518548880736046 M-0.9437654605915279 159.05811544476322 C44.688713668187454 110.098103190619, 87.32066365940233 60.81515836406333, 138.3449864952097 0.5482019155835347 M4.967758677420319 165.11093097943902 C57.65880552016518 101.78386407769317, 109.7847097782961 41.66094433673893, 147.0167136478257 1.4339383402985648 M6.051065714378546 164.35074238999337 C47.6603218449584 115.84536461100463, 88.56939268095556 69.0265717648642, 147.80544064992588 0.9097447185951696 M17.42874881727671 163.81737648401787 C61.658002114632964 113.3608620674365, 103.97196952341254 60.10627708609624, 159.05939589304705 -1.3681004816789704 M16.1023765914083 163.8306951901488 C46.03899547848524 130.15611264078018, 75.52102564166483 94.70715240692411, 158.56427526318916 0.7321804470190358 M28.53136340883595 163.9912853383587 C53.35325465739867 129.6889037411774, 83.37986449328827 96.97863655482158, 168.72273014524473 -0.14186574979298033 M26.432899937361977 163.9027946183041 C77.51116549369318 106.18420285409715, 127.88429180894532 49.135755670190306, 170.19920631930214 0.4541177748294987 M39.10132874643402 162.49930263250056 C83.19515046751091 110.90959593780933, 130.9851282355154 55.89905396489301, 181.51239184250466 0.05044718224559763 M37.07367829413415 163.80353246537726 C91.1376095073311 102.65334628158301, 145.1116856447259 41.77166753730634, 179.18917963828437 -0.4725955351804729 M47.43968411815686 163.00923636273248 C85.50285261371087 121.78829958405959, 120.92680809923948 80.70450469168935, 190.00418601666283 1.7649668669758258 M47.77911115674434 164.17644961916125 C99.55547616559907 104.41697244971134, 152.37294765121368 45.0658668220703, 189.98982409328048 0.5814528766570894 M57.657824005840375 165.04010003159357 C112.00281433797097 102.0061478787814, 163.62172666289464 42.161695101732676, 201.35513429330507 -1.0036420368132184 M58.65344507333707 164.266549964324 C94.52971267797908 122.15984849541685, 130.47855785601564 80.50278417684065, 200.84208891055982 0.5161850668851692 M68.82795418349457 165.23090687369015 C120.74933232043666 108.41959151140263, 167.0137742574637 51.2364832691752, 206.82317121653702 5.6334588755075305 M69.90935077474694 163.4687312171028 C102.93317377127406 124.56441247131079, 136.0925843392442 87.3056333746366, 207.4289021521306 4.425743713301583 M79.82469813546322 163.73588565110703 C123.1425195408239 110.78264868149651, 171.43565889980843 59.862450164383986, 206.88799447712424 16.37458565560395 M80.80930654818349 163.7685760709225 C110.33965805166163 129.5225344867421, 138.96570458972298 95.0962101357541, 207.22132430464896 16.53869010144139 M88.85080749855436 161.9595623202472 C125.80287986412515 120.66135510230185, 165.97230116308384 78.60476993602406, 205.6774228193604 29.850272331330913 M90.8134438808734 164.38037324229617 C120.28360009035674 128.4669201943763, 152.1904947905322 92.61617256168343, 207.16087019320508 29.338455188032228 M102.8111152411621 162.87321663526134 C125.2131094336539 134.40532670290858, 150.53944156631147 108.93757684107896, 209.12620823251945 43.151129524025635 M100.87842086657844 163.78306110733436 C135.36282628701468 123.16184944511583, 171.40991760320355 83.17462892055843, 207.16342248282325 41.52020593899073 M113.19005739844265 163.68870162349327 C144.83716780106658 128.05121081047474, 176.34763714724502 88.58997778040204, 208.52542737675753 51.83861963603188 M112.91192183147045 163.80674830861523 C132.13077102514762 139.98534209672002, 152.38149147655446 116.37449921827789, 208.34272018717525 54.37987130939503 M120.85702660156183 164.23781426750952 C157.28086191355578 126.88411724382152, 190.24527990770244 87.98929872943141, 207.26967253723103 64.27693944469341 M121.87943926023088 165.1192608814397 C149.90631488933067 133.5300202115607, 174.2877993002337 104.17441868298043, 207.99511950743306 66.32763806682327 M134.25310819365686 165.39095718420822 C150.89696434469556 145.7230501814087, 168.30313599746694 122.99919088002362, 205.76349259510562 77.8252296825767 M132.14725991201257 163.98855393294025 C149.50402469002123 143.70410519154703, 166.5629153848798 123.08102988352286, 207.662284803278 78.4239103715763 M143.01722605589347 165.022896106156 C160.35134799513196 145.80062302113035, 177.9702491134405 126.55726315479205, 207.6081291435185 89.25623671658003 M144.26486064649689 163.59221912341792 C164.13959985925112 139.21089996711348, 186.88037126327222 115.78269700494619, 207.4741747088629 91.14172145578677 M152.17287872342797 164.43142156069652 C176.5889671186321 142.12641487074598, 194.9568298585401 115.41902341233018, 209.22766231363556 102.72207002926987 M153.30789453985574 164.77989634545074 C175.29108453528656 140.85773722137225, 193.7742433431146 117.37299998384579, 206.93143795886925 101.67624110475552 M163.03458035641657 164.52955845017354 C179.3019369193395 145.77709757380717, 194.5207236561023 130.89034749052632, 206.05574689061297 116.17286389798997 M164.94088185576098 163.60923330411683 C179.1387852456871 148.92709087117922, 192.04677144802625 131.03763428323353, 207.24839950446886 114.70718733606068 M176.77036074001552 163.2830660519309 C186.82580188318286 150.76793414332795, 200.78841725420915 133.8496884553602, 208.78599425561643 126.3036965553069 M175.13596004538448 165.1271355169944 C183.7931982305674 154.87705529498768, 191.93262169336964 145.18144335437233, 206.75969245534307 126.68949556000321 M183.964265284381 163.1479380183122 C194.11151150899695 155.89833704009806, 197.4977206981363 149.22545912899588, 205.55870850178326 138.97325186811878 M184.89163374739806 164.15101631416147 C190.42113022893943 158.69810522315876, 196.34767587603253 151.99738010612026, 207.2632441956448 138.6157302587156 M196.22491892326633 164.45835154823055 C202.38147253855146 159.8110371558165, 205.35724589171673 152.38818521625095, 207.59482009746043 152.89626539464373 M196.031688222075 164.91917434053522 C200.42435070454823 159.57690311702754, 205.1623694629988 155.14277385379137, 206.92811405477022 151.32887869587432" stroke="#e695b3" stroke-width="1" fill="none"></path><path d="M-1.3811094262876948 -0.5260955333263314 C64.20824414873069 1.8107484505328932, 124.14456875290327 -1.0922188095892864, 201.71414150699366 -1.172840709273926 M0.2849058457232635 0.01962370765466876 C57.41018688758983 -0.42092893878193327, 113.83494965979507 -1.9898129088827772, 202.26537954381095 0.7312048980723518 M202.1592524740845 -0.7238234672695398 C200.752258695988 60.79728002110497, 198.69027338209563 117.73423700984569, 200.85775698162615 157.7872600760311 M201.51293690036982 0.977117751725018 C202.83330684662798 46.26560830296949, 201.43757268548944 93.13940025344492, 201.74336747359484 159.0913178967312 M202.62737608771343 158.14497961527096 C142.73680068900327 157.37951104007064, 82.10293733785551 160.79399285066532, 1.56629026423972 160.67881711553645 M201.76682244805917 159.70997186417458 C143.07167150262558 158.0343178925358, 84.88737528887347 159.03710293955453, -0.5226239315425116 159.2944949114198 M0.3525614235550165 157.49247642420232 C-3.0855928175430742 109.25048553114758, -1.1773365848045796 54.962312005646524, -1.1358656790107489 -1.3721915278583765 M-0.34647869039326906 158.1271360265091 C-1.5333583346847444 119.64463230287656, -0.8056622437480836 80.96770585738122, 0.45932076405733824 -0.12739818822592497" stroke="#000000" stroke-width="2" fill="none"></path></g><g transform="translate(565 195.5) rotate(0 71 11.5)"><text x="71" y="18" font-family="Helvetica, Segoe UI Emoji" font-size="20px" fill="#000000" text-anchor="middle" style="white-space: pre;" direction="ltr">mirrored table B</text></g><g transform="translate(797 179.5) rotate(0 101 79.5)"><path d="M0 0 C0 0, 0 0, 0 0 M0 0 C0 0, 0 0, 0 0 M-0.1815364277828826 12.435273085951387 C1.598953736372289 8.989539575606026, 5.889937232583323 7.469043529862287, 9.431198641610276 0.2882400672033192 M-0.22752367545853985 11.784840534299194 C4.113743249083297 7.572364140431242, 7.053484854994821 3.897463125272952, 10.925967547994983 0.6781201633706453 M0.9453248253277753 25.735000583990573 C8.75518278711609 17.049408114708015, 15.75477673103465 9.676650199162033, 19.848548949042225 -0.8964589876890656 M0.4339753866381262 24.38624559593862 C7.866394049930784 15.966995691270387, 16.28688266318592 6.897903242138483, 21.071800441758597 0.6763459243043783 M-1.0056354665291032 37.29102893527721 C9.788400551722173 27.415065339775623, 19.075317901448564 12.420092538595327, 30.202457155517138 -0.4948133396670933 M-1.0218518330809196 36.5107991125447 C5.63729568019001 29.786749565321887, 13.70206363312798 22.4439368757716, 32.528966453342534 0.4355019900261645 M-1.8887992873788662 47.070411289715096 C10.597664363170583 38.94012092174272, 19.07206420154086 23.943544524358362, 43.8495114954149 -0.6361612371773475 M-0.6636124020443148 48.06655327384256 C14.194779563542012 34.37805658666968, 26.039819490582502 18.43849535141585, 43.31818183473848 -0.4502117486343735 M-1.9695396310557811 62.633460254870755 C17.25122720431097 42.269722613915945, 35.906920203111405 20.140162701807647, 53.98703862889177 -1.1652902778760783 M0.057193976929298174 61.09145130263309 C15.01909005221712 43.170687217042875, 31.80408833847146 26.01452791479832, 53.35006059961832 -0.7317413365991108 M-1.8161548374035945 71.65101323308794 C18.900544733120707 52.51354918357478, 34.485329997637265 34.16985563222647, 62.915880841103984 -2.1242536844195357 M-0.4410061824882021 73.45173465399442 C15.04523979937394 55.45526907714577, 29.77288935732582 37.641666799229434, 64.21783394915391 0.45422499371007774 M0.6065723787339437 84.09664200171039 C27.080292348236625 54.96893597706806, 51.823826840749305 25.98482812271056, 75.6028960422078 -0.314870304463966 M1.1928308208750593 85.37790259550468 C24.75186918707028 56.32915595202688, 48.742656330558404 28.22026998101012, 73.91610027201715 0.3665068223713206 M-1.1561841014774217 96.43886229330465 C19.75971394459043 74.29277047242398, 37.96250407039164 53.6381311826073, 83.24345776735947 0.13877538933436995 M-0.6949431532995476 97.00067178746477 C23.882308742037345 70.10919343944444, 47.81867631513093 44.00429906840824, 84.55957514437989 0.4406815419627321 M0.1374423150995696 110.05979547476889 C38.106518788674904 68.10586015104299, 76.42099565603694 23.30319594333821, 96.82395517671526 -0.7721667006807706 M-0.4196819708591377 109.11338796200724 C31.93491655989237 72.30115709742444, 62.4095785644551 36.76574580164359, 95.10184132991404 -0.9296656424375556 M-0.9478432403693375 123.22092602866968 C33.83155806915606 86.0456597663392, 64.33233449917138 49.97397225758252, 106.68429305543137 -1.5038122971656307 M-0.17604939712234113 122.48153340443304 C34.481457364290925 83.31635587742525, 68.63914627752577 43.77917356954656, 107.05409877979142 -0.6116917132514104 M-0.337760982727886 133.48176323235072 C36.16989685496099 94.36939345082727, 70.33501751573637 54.35965431266655, 115.4243327846736 1.2326668324463057 M0.3049670190827243 134.60513863232023 C32.937762574495984 96.83957417372837, 65.634601665755 58.827621688061214, 116.54785560369345 0.8026637398220586 M0.45798449818015285 145.8920507381558 C47.883702761178796 87.42697372230444, 98.96741141598116 34.44773551228006, 128.09062845757916 -1.1102954449467646 M-0.1812530835720878 145.254741975747 C35.1827621655865 106.57490772017044, 72.0391377384694 65.82279765439675, 126.67791418577298 -0.2409098010845767 M1.0783373905449385 159.13861865313706 C34.89724241813276 117.14676937761946, 72.62255316805368 75.84820923056762, 137.7713612901213 -0.8041969073507258 M0.6345493371032147 158.9826029676871 C33.69394586366462 121.63757503474572, 66.6561428264048 83.94273663382545, 138.1972864132448 0.9635773874114588 M5.339125107788552 163.481280084401 C50.78447837424548 111.0681481785807, 97.37286525897984 58.56734617117961, 147.96815100444513 -0.1039930820649071 M6.252363976933382 164.19429097449512 C60.618571523308304 100.98553031485892, 114.9659436713996 37.77796166149849, 148.28058975985314 0.5395724179803358 M17.50244300665983 164.8249201968595 C59.00022557617658 111.70547966575694, 105.06790941683948 59.93823101614763, 157.26992409950174 1.8909468911418836 M17.14056745253186 164.3635828856033 C52.80093453141621 122.67962050961805, 88.5238867795581 82.1767920429393, 157.9250524809625 0.808619584017117 M25.793072465241778 162.68267670419712 C71.27291024654174 110.79827489552311, 115.46048043737993 59.732114207317885, 170.2701437407924 -0.8645214679206124 M27.02896151023786 163.60739490996528 C75.60930872163867 109.90629053473236, 122.43733953367881 56.6828467613864, 169.69383039248012 0.8682933503194011 M37.19098355912037 164.082932215203 C67.94335853858182 128.36879245607133, 100.41566009779717 93.03844754129842, 181.35939334765317 -0.8193729942133332 M36.97089115132094 163.53113452912402 C75.53022382247774 121.73914496183062, 111.70035107466032 78.52147597277414, 179.69899807380062 0.8777964703051571 M49.77760355763154 163.95157444491613 C88.64069715204221 120.3796408372675, 127.57060353885765 75.05472481231945, 191.77368213316998 0.0353603835527837 M47.87925183017565 163.96033042149747 C94.87045099633112 111.94668357468666, 138.27664716568816 60.70575702384786, 191.2938682574436 0.11532999426735338 M59.32758232386119 163.7977444146256 C116.1865725913145 98.31128975826215, 173.70164095807417 31.19408128248017, 200.4967193041787 0.13595384291681534 M58.53806435432147 164.4932383623786 C111.93222381087803 102.76520391693883, 164.9241732694412 41.83258874684482, 201.75326752905337 -0.5976624306260269 M71.14816593968176 164.25517858604772 C111.82654170209777 113.22286140438442, 153.5801529792483 66.6073019734222, 206.90277253690726 4.121882467602953 M69.71706281165616 163.43396246218705 C123.40857835463832 102.46356601214751, 176.26953333013657 40.178364738704644, 208.55791689363045 5.450821851561352 M78.46559940299176 162.68097052096863 C107.77023626900701 133.97214703185338, 133.55549757561846 101.10157497337678, 206.14147318300726 17.045197335157937 M80.46485431606106 164.71487928952564 C127.91960732752088 107.66382982672597, 177.72602385817356 49.504375860582, 207.6271782019821 17.51216826969052 M89.2921066390077 163.91037114335586 C139.7279762144454 112.63729691028172, 181.44838609339766 60.316299403109724, 206.86771297238698 30.34624907741322 M90.25612486560888 164.03418740908046 C129.7528925803848 118.77969050393499, 166.8114449106491 75.08256014097239, 206.94238880153677 29.023197966571885 M100.02955786000899 162.31687099364834 C126.86076221437304 134.63274307261452, 156.0470979679957 103.72644045728555, 208.39997731315833 43.25842104366751 M101.13206929668746 163.64643090003418 C132.95620659960176 129.29801024722843, 162.3588606119893 93.84280540431061, 208.0876040931691 40.69071894305529 M112.03543597615185 164.95802622418984 C141.34855734665868 127.33935314560526, 172.83129589109086 92.21482108094001, 206.08988974047747 54.001378761264576 M112.26697349796864 163.50574184246494 C143.81658442501526 125.76609672259248, 176.31679689411914 90.09056607620627, 208.84941465305087 53.028433591718866 M122.73968049360208 165.8238369425469 C145.56277493007744 139.36594997381872, 168.568790968779 109.56788425015316, 208.08008941450078 63.91002213254818 M123.04918151663385 163.74771970917368 C149.92085188314434 131.14846054237336, 178.92892024171482 99.3854490333123, 207.3532782448541 66.00805211764076 M133.83142363049691 166.25540889061767 C160.04514434686178 132.25735618044513, 184.16936085055244 101.52416940189846, 206.21067209139392 79.62669501508479 M132.42408167433595 164.4518430447929 C159.43567696382638 133.22806884177288, 187.55709580273177 102.40086265608402, 207.12621079076007 77.59525211862181 M142.8851361430021 164.91071092596877 C159.57678046618918 146.65313278627715, 175.16159900059745 126.5007947210986, 208.20592623929412 89.51984690077269 M142.6765023932563 163.9509769471236 C167.06762897933982 138.32075835317983, 189.45219742277024 111.57013559172397, 208.43977248742164 89.51209026429468 M155.5473634412739 166.18323670094387 C174.86134749533565 138.99441974761723, 197.76680049667576 116.51324595731609, 209.30047886436722 101.64979039717835 M154.7736983120668 164.5937847462438 C173.6366556458955 140.89055653863505, 194.0395013013342 116.7251349988162, 208.09246363202027 101.54650977746022 M164.44316656046854 162.3942142428867 C178.92105747029498 148.75322575343995, 189.72329478106974 135.35465925874325, 208.42603162676943 116.18736290664552 M165.42804125693934 165.28068758473168 C177.9078445830956 147.9768896049328, 191.5408999643088 132.86968911837235, 208.7527107382278 115.31475211319653 M174.7386221607423 165.23010595414112 C187.64204432764413 149.3566417205604, 199.60530812961366 136.69118688649178, 206.46174278266645 128.36084578674075 M175.81577024154575 164.2451144176654 C185.0340642922456 153.063529636389, 193.09714788614696 142.16158099379174, 207.36549847822553 127.55202611930459 M187.70332252725134 163.18010861205076 C189.62043001222605 158.58340409074302, 193.6939603088272 153.0082485512569, 206.42096330019558 140.87462602936222 M185.29574146705787 164.834752012623 C192.79621664614808 156.61289775208613, 199.1623017016842 148.22426823778534, 208.49535579866642 139.87491971541687 M198.00483638692657 164.85423989168396 C199.14251436467435 159.55011581109332, 201.64501879077937 159.7449698567275, 208.8616179589173 150.09583577926534 M196.18184372612285 164.2755102352987 C199.4545869322519 161.508556653175, 201.07207792603853 158.04704662776055, 208.03828166094516 151.12939636668455" stroke="#a9c97a" stroke-width="1" fill="none"></path><path d="M1.2852004046509062 1.1527377039063773 C51.559856475736716 -1.2188730675562076, 106.23689192897966 -0.6414842206143311, 201.6809786383099 1.2153602577447018 M0.40372979851587226 0.8586505596710581 C74.69285685499807 -0.7498732998922167, 150.0070222905128 0.6915650086099208, 202.63892925049797 -0.882628412149189 M202.31741143204272 1.7672361340373755 C200.38203183504754 36.896928255353124, 200.98436269852334 73.23281811531633, 201.83113009668887 159.4808972682804 M202.45099351834506 -0.09187596570700407 C200.28082902879453 59.19112715842203, 200.96893714518285 117.62470878139139, 202.00619311165065 159.94769248832017 M203.46190154434632 157.2634055408475 C141.65824424764762 159.81431676286584, 79.77650066245178 159.81524652696012, -0.17836794071263892 160.3355354602055 M201.6624867712688 158.85500391629398 C150.621906183518 161.29193212894538, 98.58317678317378 160.72863807705247, 0.22696754568361452 159.7979904937573 M-1.6705273296684027 160.97526957653463 C-0.04255742865614587 108.45022811358794, -1.416152010736987 57.70450450647621, -1.0572412516921759 1.9075395669788122 M-0.016864378936588764 158.93956435192376 C1.2617328297253698 121.06019076323136, 1.010221881782636 81.87784342728555, 0.36205614637583494 0.8122417079284787" stroke="#000000" stroke-width="2" fill="none"></path></g><g transform="translate(828 197.5) rotate(0 60.5 11.5)"><text x="60.5" y="18" font-family="Helvetica, Segoe UI Emoji" font-size="20px" fill="#000000" text-anchor="middle" style="white-space: pre;" direction="ltr">public table C</text></g><g><g transform="translate(195 177) rotate(0 -0.12265216768719256 0.04345077910758732)"><path d="M0.7713712457567452 -1.138596076145768 C0.6348467234522103 -1.3138122383505104, -0.9118258472532033 -0.3454727593809366, -1.171191632375121 -0.19128637947142124 M-0.28279757956042895 0.8780370385386052 C-0.039018764887005175 0.8152001393772663, 0.5958467139862476 1.226730830166489, 0.9258872970007359 1.245713522527367" stroke="#000000" stroke-width="2" fill="none"></path></g><g transform="translate(195 177) rotate(0 -0.12265216768719256 0.04345077910758732)"><path d="M0.9258872970007359 1.245713522527367 C0.9258872970007359 1.245713522527367, 0.9258872970007359 1.245713522527367, 0.9258872970007359 1.245713522527367 M0.9258872970007359 1.245713522527367 C0.9258872970007359 1.245713522527367, 0.9258872970007359 1.245713522527367, 0.9258872970007359 1.245713522527367" stroke="#000000" stroke-width="2" fill="none"></path></g><g transform="translate(195 177) rotate(0 -0.12265216768719256 0.04345077910758732)"><path d="M0.9258872970007359 1.245713522527367 C0.9258872970007359 1.245713522527367, 0.9258872970007359 1.245713522527367, 0.9258872970007359 1.245713522527367 M0.9258872970007359 1.245713522527367 C0.9258872970007359 1.245713522527367, 0.9258872970007359 1.245713522527367, 0.9258872970007359 1.245713522527367" stroke="#000000" stroke-width="2" fill="none"></path></g></g><g transform="translate(73 407) rotate(0 342 119)"><path d="M-0.7807944215834142 -0.1275242529809475 C253.69738820083438 2.4536805224865677, 508.9833917155862 3.1611800981014966, 684.2541985355317 0.017508653551340105 M-0.3168420296162367 0.118388394638896 C236.32462942525746 0.828071791559458, 471.60311450622976 0.27946135464310656, 684.0318504948169 -0.14476469345390797 M683.7273816503082 -0.9556411730230144 C684.7448324754433 75.0359134684297, 686.1617896439632 151.5190199293351, 683.1850113428061 239.63498299297024 M684.3550946834516 -0.21470790770849324 C683.8934570485287 82.13882711429409, 684.6099305187875 164.32092291325856, 684.2926954716572 237.6010995642233 M684.7485218606889 238.69873731508852 C423.7885305520147 240.2900451977402, 162.67498318254948 240.00712576700747, -0.20804554596543312 238.63345070257782 M684.3826679963619 237.76685238294303 C504.6784935519099 238.31181615132093, 325.4502243351191 238.26746062773464, 0.0705122847110033 237.69849528484048 M-0.49204204840305515 237.04969433612143 C-3.1145954905424054 185.59474955409976, -0.37065569817463695 133.99009256169677, -0.5797528140487738 -1.460538148359876 M0.46648287424132556 238.38428410302956 C0.013753163316059108 167.30428127994762, 0.7998893516191362 95.76805427647898, -0.6827329310764935 0.5482392065829005" stroke="#000000" stroke-width="2" fill="none"></path></g><g transform="translate(81 474) rotate(0 101 79.5)"><path d="M0 0 C0 0, 0 0, 0 0 M0 0 C0 0, 0 0, 0 0 M0.6240676486026153 13.349644290327609 C2.4335145913395024 8.453077739434905, 8.176453713302266 5.176065973106303, 9.901057478737963 -0.7558329422876476 M-0.6626125483680858 12.80985631760913 C3.218180689277868 9.522057274224881, 5.973787981830733 5.874823086485353, 9.874693677526844 0.23711879580167539 M1.9986212721280072 25.40778407798624 C6.688261621924866 13.935574763164704, 17.36154965042365 4.622419043433137, 20.92491287020769 0.2663795905351165 M1.0038399577326391 24.318956899172722 C7.038513998940292 16.724993619903465, 14.258338822407506 7.288831182389174, 21.291660816686118 -0.4434959493414041 M-1.0795095824730119 35.31357820686077 C8.3949305857629 24.30690209405997, 18.55688478568232 13.721970280023218, 31.121743287375963 -1.6339423822925205 M0.4760084197762886 37.72306478284423 C9.083746536207565 27.520693073200434, 16.327303826142288 16.644461075215926, 30.989627685814 -0.9861453798354383 M-1.8297121301294155 47.266578877949044 C10.028814076708416 37.917245301335576, 17.813699221642022 27.919937296531266, 40.77419542390459 -1.2182491115898841 M-0.7340333228931613 48.77828297917627 C9.397811709275379 37.87745607313477, 17.990000274072788 27.152975066640447, 42.22844519428514 -1.1275830717430466 M1.291234385324529 59.45600494881759 C21.304327902403198 36.271874020084056, 40.63167758311282 13.14020111122342, 51.26318968994981 -0.0774219450132243 M0.924168151905647 60.80185158596973 C17.18086445698156 41.593568204682676, 33.24088188952487 22.562960077661565, 53.73318048077142 -1.1519581949861042 M0.8986253740450749 72.80660007181017 C13.417616971337893 54.37039450634202, 27.831642290993408 41.00604353891138, 64.44816212066789 -1.374607855218791 M0.18349248284459208 72.62680893330274 C22.234635195365307 48.35648826545301, 44.25848300388789 21.921838728708302, 63.224017871444715 -0.04166210698648598 M-0.41372812881152754 85.17084227427051 C20.008384573088843 63.66223850691587, 38.152060089708705 42.577577463052286, 76.22956437621507 1.5922805601371692 M0.02193649609554882 85.13795116375343 C24.350086651100575 57.12589260832726, 48.9349896187607 29.036449856508447, 74.1350088799769 -0.6960783526660634 M-1.1670584920795335 99.52115353876516 C17.130620024947255 75.97940946422787, 38.18121808998598 52.76420868093207, 84.1113637417476 -1.1719349216016042 M-0.2746948236601128 98.8077918126227 C17.703846402809337 77.76414356765234, 37.582608862772176 56.00250141276542, 85.33282220753983 -0.15033266444672222 M1.1890946273783172 110.36856148219229 C30.25875007770361 74.4422898847227, 59.35622648445405 41.61508883726944, 96.76354312742174 -0.9221981480913541 M-0.7698022172695076 110.4589734870431 C19.99635853652657 85.06530236323184, 41.994157140640965 60.66138935162013, 95.83549374280543 -0.7940429622503302 M-0.0969698892722306 123.72845683711847 C38.37735585096192 75.53478061486769, 77.27807790679027 32.202343034419684, 105.58460106839371 -0.7357185919883236 M-0.0935963250512657 122.57377534731557 C38.47221422871999 77.43913991908025, 75.62128738806851 34.96693698709609, 106.5311765619455 -0.5900693534987553 M1.1076214931250803 135.5392551308874 C30.060761487059615 97.26937927188413, 62.55165435498846 59.50549259423833, 117.6079926958293 0.6802382292740035 M0.899888429166495 134.0565247860182 C42.21663018360597 84.6536013082591, 85.17953159179154 35.7787915810886, 116.24083189964148 0.46144544710889335 M0.7267579347264785 147.85460626584288 C39.7456824832323 102.83224490734062, 75.40572221291602 60.439259517236096, 125.68886585286572 -0.5929875674061762 M1.1954848090556283 145.76955700822916 C29.86928536502444 112.36449153510095, 58.30523472555584 80.0895173504463, 126.0612152650462 1.0854877967051877 M-0.5737628344747547 159.00756072751818 C45.173735973124835 107.4590854643425, 87.81194255519623 56.52976397886542, 138.06076255834958 2.049949740554862 M0.5725904072031646 159.03721376236567 C44.15581962937435 107.75886281261106, 87.95234759882084 55.772044366483776, 138.07583648189896 0.07255739331363009 M4.6519043568856135 165.2059172486401 C45.12550608160081 119.3056141059951, 84.9395618656848 76.33536850754815, 148.77916182967746 1.175730907015522 M5.4406313589858035 164.6817236269367 C50.65672487983978 111.48013961709637, 95.82485471490494 59.75158292509872, 148.06925401702154 0.8077637932551847 M16.69458660210699 162.40387842666257 C65.2649437750584 109.67962825491875, 115.3261791563961 50.5755138587907, 158.43814693397476 1.6574633391456526 M16.19946597224908 164.50415935536057 C64.15570729475664 109.20898487399259, 113.67208473759365 53.58420323025344, 158.80354570372538 -0.39646122944704765 M26.357920854304663 163.63011315854857 C59.847315706099636 126.78401175056486, 91.65945882689674 89.60296334780091, 169.2814252942718 0.1395769354908713 M27.83439702836206 164.22609668317105 C62.83717021511262 122.90686344447947, 98.57383648339953 80.71773021831662, 168.70489161032967 -0.047045434500964656 M39.1475825515646 163.82242609058713 C82.70834076098464 112.97366796098615, 124.57149663389171 62.255604377714796, 179.78198049240453 -1.2712383014097597 M36.82437034734431 163.29938337316108 C73.53085621731184 123.0767221943261, 109.72417113722312 80.48245595667125, 179.60719573497903 0.8967248127614025 M47.63937672572274 165.53694577531738 C92.49752379655494 113.25192481871565, 134.75887879204123 62.70529707038695, 191.22689430395894 -0.7491914627671777 M47.625014802340374 164.35343178499863 C91.25143721213612 113.64906959382184, 135.10782908363993 62.86452356344549, 191.26996482894302 0.32217444388302263 M58.990325002365 162.7683368715283 C100.77247367490725 115.00943942162951, 144.95789596736068 65.93730497487479, 202.10617449827086 -0.7262409335423063 M58.477279619619736 164.2881639752267 C113.05149787093889 101.78306550028664, 165.5297977880431 41.290387646974565, 202.00479849661605 0.8740375872818785 M68.39471609953999 164.87718030251241 C113.80250393131237 112.50372806020182, 161.29760221784622 62.08014521384212, 207.27326233387183 4.865338943396887 M69.00044703513358 163.66946514030647 C104.60914306248003 124.03466988951092, 138.47782302379883 82.5095033831513, 207.9801082379346 3.823655556339403 M79.61254285296582 162.78824421882172 C109.58604289975116 127.11231431094406, 143.72919501417323 92.93711026472283, 207.41902805265906 17.89631029692704 M79.94587268049054 162.95234866465916 C131.23787748377796 105.92236928868029, 181.80010398630637 47.51814136503438, 206.58235008508834 16.6141376906004 M88.89891565905012 164.18857761098434 C124.64964124943796 123.26327802117416, 161.80915274151852 81.03208228486709, 208.84475743554464 28.259530160520214 M90.3823630328948 163.67676046768565 C127.39653778140607 119.87070312441821, 165.75955909465708 77.06689583475513, 207.1895700382807 28.708676832672197 M102.84464553605727 165.4140815201147 C126.96616922540358 136.69643468748149, 150.39252889404844 105.70281383220306, 207.85226820575934 40.792097787174896 M100.88185978636108 163.7831579350798 C132.29751881130636 126.7403849685391, 163.09186972894094 92.44769837959755, 207.74770532808196 41.43742942231478 M112.74080914414348 162.0262183485566 C145.34571753323866 124.89261063564871, 182.6575020324726 86.02994748111176, 208.10177764845935 53.84258495423485 M112.5581019545612 164.56747002191975 C139.63951734727377 132.90263690434372, 165.27551220804742 101.84739154544371, 207.79529965566394 53.843394727106286 M121.32593973947458 163.14389445387656 C154.17128644512314 125.44362858916178, 186.5255608295323 90.08937080672544, 209.419518673801 67.49979781404384 M122.0513867096766 165.1945930760064 C142.10544199800017 141.907876562709, 163.3857405874478 119.20267406484592, 208.5222639096986 66.11507982712486 M130.97276329018777 163.86212182797271 C160.39120980021613 132.09225253766232, 192.35770458072574 95.83761330918281, 206.70418078795 77.78498647416835 M132.87155549836015 164.4608025169723 C156.00967879165262 137.44731151573228, 178.78778970372795 111.65037688194832, 207.83256713736728 78.12245919517134 M143.3143443024488 163.2177755784117 C164.90695910805294 138.97206470575128, 186.7246860128078 117.43756648385451, 206.11364620904357 89.07050667650664 M143.1803898677932 165.10326031761844 C160.17323727957526 143.91928417381797, 176.96841580094608 124.66239077414224, 207.6872226603228 91.1793863758784 M155.43082193641396 164.6082556075372 C176.836552166714 139.52928898997916, 197.98928501824406 114.64839020633318, 208.69113569324753 104.04557727862519 M153.13459758164765 163.56242668302284 C172.54104305337523 143.08112334275188, 189.91604884199285 122.89563322608211, 207.88668390074662 102.35310146704686 M162.75585097723948 165.98369619269292 C173.86991678723564 155.79453959397443, 182.65654708849883 144.52378814492332, 206.5519446507181 116.13494193286775 M163.94850359109537 164.51801963076363 C182.96948822505195 145.4738619595291, 200.04724308007053 125.47908432192455, 207.41383049731058 114.22664279875485 M176.6391018350816 163.28446598622273 C185.3408746623638 152.69729729128875, 197.21640119423714 138.5097616110637, 209.13382508762098 128.44578824680087 M174.61280003480823 163.67026499091904 C184.65483316662542 153.53619248028792, 193.50690375660298 141.21524365688222, 206.84060024719602 128.18951609380332 M183.9087605450965 163.87866801547025 C190.30405327875096 159.6206492200003, 196.91409214166274 149.9376492528883, 207.38372172209347 138.18640946232273 M185.61329623895804 163.52114640606706 C194.67711805538875 155.7486283541002, 200.8544954084952 146.00433518879439, 207.67097522205586 140.2001061468248 M196.4418166046218 165.72632825843087 C201.49505024362375 158.67296304495972, 202.94692700475161 154.65639600333662, 209.12217281497922 150.73929274495023 M195.7751105619316 164.15894155966146 C200.31654677590006 159.90544256313584, 203.37945315727305 156.29739471099185, 208.05071363118387 151.13303175827753" stroke="#7cb7e6" stroke-width="1" fill="none"></path><path d="M-0.28585849300634486 -1.172840709273926 C73.26572794188179 2.983092109522662, 148.43640900165167 2.3375435432244878, 202.03924741530935 0.8074595970317445 M0.26537954381094386 0.7312048980723518 C80.58307357564257 0.5520430769189781, 159.29745219678503 1.5060675901002234, 201.67549531838904 0.1423019566956777 M200.85775698162615 -1.2127399239689112 C200.44419386061838 62.23042453387753, 202.00510092648676 122.52492833193394, 203.95423550345004 159.90198703669012 M201.74336747359484 0.09131789673119783 C200.50405548960902 47.18686463357881, 200.56196608097292 92.8281925059855, 201.5232088668272 159.81521061528474 M203.5662902642397 160.67881711553645 C160.78310178275788 162.03020168516207, 119.11037902737847 160.2283111210749, 1.4199437283491647 158.3249735425376 M201.4773760684575 159.2944949114198 C144.89351776008598 161.530724199649, 87.46064058846186 160.89079411381215, -0.6758532710063296 158.25106885345758 M-1.1358656790107489 157.62780847214162 C-1.2462357296328992 97.50414643352852, -1.3465568436961621 31.50025635231286, -1.7457279469817877 -0.03372875787317753 M0.45932076405733824 158.87260181177408 C-0.7681662757042795 113.07316851234063, -1.4107390064839274 64.70580785237252, 0.6552903158590198 -0.4811631692573428" stroke="#000000" stroke-width="2" fill="none"></path></g><g transform="translate(96 492) rotate(0 70.5 11.5)"><text x="70.5" y="18" font-family="Helvetica, Segoe UI Emoji" font-size="20px" fill="#000000" text-anchor="middle" style="white-space: pre;" direction="ltr">sharded table D</text></g><g transform="translate(337 408.5) rotate(0 128 21)"><text x="128" y="33" font-family="Helvetica, Segoe UI Emoji" font-size="36px" fill="#000000" text-anchor="middle" style="white-space: pre;" direction="ltr">shard 1 schema</text></g><g transform="translate(530 470.5) rotate(0 101 79.5)"><path d="M0 0 C0 0, 0 0, 0 0 M0 0 C0 0, 0 0, 0 0 M0.45588027770627604 13.177063753127634 C4.471525002329798 7.397370704135103, 6.2553465981652785 3.6212575071796396, 10.948092943382395 -0.10691909090729945 M0.8457603738736021 12.2791858461197 C2.423574797341386 8.825165919392981, 4.498594976171983 7.8204018374304125, 11.292622082632912 0.25916167079356933 M-0.5611785666831519 25.309764824523686 C7.323733229249754 14.557565921659881, 16.67470150471297 6.164827855217226, 21.068784367570544 1.0874287927686694 M1.011626345310292 24.175671660057365 C7.345408310740076 15.126300773857805, 15.52762787401624 6.275246251962706, 21.178329195173347 0.925802007706416 M-0.647951737148734 35.04232985507821 C9.236916451655507 26.807366639558154, 15.144865054362874 17.27023955690943, 30.6153213153098 0.8710440119042282 M0.2823635925445238 36.29360947832589 C10.831543439565323 21.96776411178283, 22.546439738805482 8.140982136617374, 31.952019771977163 0.6422458022146706 M-0.6216594241560287 49.178748919301555 C9.125969010789419 36.356804652599116, 17.511612488555393 25.868014305247467, 44.30679196361058 0.7493190363376385 M-0.4357099356130547 49.14651037719928 C9.6371918135414 36.564320400415866, 19.334542432610174 25.971777083260488, 42.41119332760178 0.30756025559743705 M-0.9831482543518035 60.73160513257275 C19.1495361098319 36.59281182626788, 39.25893555134839 16.488324848786128, 52.08551808981663 -1.4632319737748496 M-0.549599313074836 60.572549513072175 C20.466947017857073 37.50574009209812, 40.730172761226726 12.318667329475865, 54.05197412962532 -0.6637343684734098 M-1.774471450392305 71.74978765504805 C23.45295130870956 49.214028553655865, 42.03836614209654 24.721574983247585, 64.6340558462717 -0.09857923327698614 M0.8040072277373085 73.49405964961646 C19.26272548724394 49.905206085275935, 39.281601388316865 27.7298403997183, 64.01599425812591 -0.549500618825995 M0.20255214006621713 85.6357012718837 C20.305329498798482 63.773957432948386, 41.422048984429395 39.98563450983822, 74.81269576031956 -0.07267733201251758 M0.8839292669015038 84.390990738004 C21.529013044052924 61.71341739288759, 40.45285480642504 37.87202666740915, 74.87164360568168 -0.6012338567884399 M0.16777901537700757 97.46247597345874 C20.367126647629206 72.75335011991868, 41.355794114332504 47.09147242597206, 85.09696273430393 -1.3229652348252046 M0.46968516800536975 98.77436949712947 C24.339860533506915 69.37723433870575, 49.6249370147194 40.014943905077295, 85.39531987737075 0.6746877438111198 M-0.5755228641351735 110.51762863448383 C35.364400148514925 70.18313706052152, 68.95429544305968 27.32841377959265, 97.01511604556859 -1.24586628155879 M-0.7330218058919584 109.88621109271915 C21.31456963643208 84.75875869681543, 43.6654693425119 59.41747990170458, 96.35267859077126 0.2357531966445663 M-1.1395282501170811 122.39382049533805 C30.331531101613244 85.03007537547143, 61.05463183118858 50.90554010861308, 106.58564934645725 0.8657118129429833 M-0.2474076662028608 121.94652661866775 C30.731598809385115 86.04962402751815, 60.34086703896683 50.2826517488258, 107.2798830759613 0.22206870288378155 M1.0098815097750418 133.5325188411776 C39.461267482788045 89.3311594091319, 80.16667261218251 42.8360160289094, 117.09873163532319 2.139586539059131 M0.5798784171507947 134.85323477614708 C43.79869068162794 83.54862190545866, 87.13982077706996 33.46967019756076, 115.60879544652852 -0.5701827685765934 M-1.165440557115076 145.54120658215876 C38.78280868522492 97.12254001246225, 79.55817867478348 49.93831434185137, 125.17794337249114 0.6679622715003504 M-0.29605491325288824 145.65562145382907 C50.11701728899757 88.49289062172178, 100.37837309468766 32.58045320433814, 126.07246271553203 0.011170197989763153 M-1.3477608380065758 157.6605082429832 C36.889195165744354 114.630135961291, 78.75347767795259 69.95104997395433, 138.19433201578266 1.4474294935832623 M0.42001345675560886 159.00066670840778 C52.921068518203086 96.34561900581122, 107.07290578363416 33.44178703535137, 136.66496745278056 0.6728648183046975 M5.424614458696748 165.54482897392876 C38.68043028371573 126.4558267796845, 72.41335841652305 87.80076346499277, 148.68678790602053 1.4961164634180024 M6.0681799587419905 164.15922885784906 C42.08822846810365 121.41143551633135, 78.95858401729748 79.54310291958478, 147.5611019135419 -0.29784727195271976 M18.08413910625463 163.1746493372429 C61.95513767980984 113.12516867721848, 108.89779571479608 62.57819724830406, 158.67443781374075 -0.3488586763013082 M17.00181179912986 164.15890311762917 C55.29167826337274 120.46534561155512, 92.85883116692997 75.01995374933601, 158.92691287008884 -0.37352249830237505 M25.993255421543196 164.47413472979898 C63.05871803694799 120.69892351790546, 101.22210188117835 77.57755381856623, 170.89196866829323 -0.4933884752552381 M27.72607023978321 163.2708083935012 C82.70268585003862 99.20107268104589, 137.09589575150974 36.321856859217554, 169.52349406078795 -0.14338496275933005 M36.70298856960155 163.23291475218295 C91.16061821459512 99.91997514228787, 145.5624617160714 36.55653104757978, 179.84817559096706 0.34926681089215017 M38.40015803412004 163.75019732423468 C66.86006851615717 131.14458066038816, 96.5893669274263 98.76083837120999, 180.05226861093226 0.8662367515709463 M48.22230662171875 164.17184979873073 C83.04679123942671 120.94211570590397, 120.39208535850427 77.77942813159943, 192.24627920930135 0.24861752022679445 M48.30227623243332 164.77009340172413 C78.28712516524666 127.56470994991841, 110.4680136065119 90.88407337067197, 190.3608966426898 0.45536541470798547 M58.98748475543383 165.12892125752825 C102.29112049920877 115.74219925705276, 145.09226674227833 66.69302895437258, 200.34447705708502 0.9054331845846462 M58.253868481891 163.91941947098908 C92.8706899616582 123.70352077264262, 128.99243217460025 82.98729042440132, 200.9958811751034 -0.39330435020366716 M69.10974057313443 165.41214357953496 C101.62541819474 126.80630918411501, 133.45686409621484 89.67647795740517, 208.91858869073718 4.828218391541505 M70.43867995709283 163.0503978353914 C102.0913338586666 125.75986645522259, 133.90646198376282 88.00651524001036, 208.2061364990483 5.0303869774195435 M79.86757725125335 165.55368395640988 C116.52402370305094 125.0479327806827, 150.2091923277681 87.39769150884118, 205.9994722209585 18.516758279029673 M80.33454818578593 164.70766477871229 C115.2682897115746 122.6770883588199, 150.2969204062789 83.61049096562992, 208.45831937023374 17.527500944298154 M91.75786038429536 164.30940992383648 C114.19638274241022 138.17602604587302, 136.77497920986 110.22770594808784, 208.97693831629982 28.762825094107527 M90.43480927345402 163.30923850180943 C121.30976462428016 129.98982609449703, 149.5953797584146 95.57286737749435, 207.21856214914402 30.18686031637712 M103.25926374133638 163.4494685481234 C138.44123735394015 118.41390645439814, 178.13160996704244 73.06567359593217, 208.52103000673395 42.59299263245197 M100.69156164072416 163.9013698954998 C127.57552312907752 133.89891395124945, 152.61910144315607 105.06011495206461, 207.5037349283595 40.74226441959621 M112.59145284972014 164.44853023942693 C146.4422515440004 128.19519295642607, 176.95055500286603 91.0135351928344, 208.45102219460455 52.22607192921926 M111.61850768017443 163.41225109845533 C143.6459500320002 124.59550974011606, 177.69823791972527 87.29871767756858, 207.66836041295824 54.35921008012731 M120.43326858279995 165.0144906131261 C144.87680055948357 139.8376199695313, 169.77918335784767 111.13889226195207, 206.63892415725547 65.42188964456567 M122.53129856789253 165.01990101707065 C147.65982910810092 136.0709525958734, 173.02642561490885 107.07970092928745, 208.55621912051845 65.16706131164231 M133.98446327590054 165.63213216893155 C147.77177258572556 145.71578329877207, 164.28334453328154 128.28486482006844, 205.7909205180399 77.79849764387016 M131.95302037943756 163.85207700457204 C156.16049551781475 137.75708911053854, 179.7742940204829 110.46045271714134, 207.6255403521277 78.73250889553582 M142.46684655237513 165.6538817722224 C164.83307348227711 140.53879583052546, 180.87648839054452 119.14607951577402, 209.50910736228258 91.37583467684352 M142.45908991589712 165.23328234235424 C160.17293222346296 142.84562820149608, 180.15105819953664 122.68028111829321, 207.35448830834508 89.75948206003422 M153.18602143956753 165.84347233315484 C172.63992550046837 141.73079694993305, 195.65183215234157 118.25883205075925, 205.79263806333682 102.66648385886472 M153.0827408198494 164.38467791908906 C165.3196988626868 150.83907861005997, 177.69257655808326 136.34823543321735, 208.08605791525832 102.33615596153211 M166.31282533982144 164.6931523868851 C173.86878647284598 152.46149125587306, 183.8498577999456 145.44331626098045, 207.09945939854634 113.21933435009001 M165.44021454637246 164.89754181094835 C175.43764666419608 151.70854579918418, 184.60948705411056 140.96244639299402, 208.4335609404455 113.63486336370138 M176.32083003048064 163.9861860935695 C187.1398279972627 152.44659423235544, 200.41523066525272 136.9750125564455, 208.47169349126435 126.69150051589845 M175.51201036304445 163.4520192816041 C182.16665374915073 154.8893671954386, 191.70974859726797 146.07802433441466, 206.74975793499416 127.14026379793673 M187.4238416638888 164.3593532383642 C188.3561824175477 159.16044676872508, 193.55165449176909 155.48095673848638, 207.59737392681564 139.39198360600068 M186.42413534994344 163.53587278222804 C191.84422579252035 157.29547562768644, 198.86107585430096 150.66083603435376, 207.53234434946353 138.34925524246438 M195.23428280457864 163.06226637478014 C198.77749045973195 161.76485829003238, 202.39474992391794 156.6618173672926, 208.21069551799354 152.21868994890977 M196.26784339199784 164.16538168683675 C199.0726667078691 161.76086141244858, 201.10068727073372 158.94483701700048, 208.17436208217313 151.06740946162756" stroke="#7cb7e6" stroke-width="1" fill="none"></path><path d="M1.2153602577447018 1.2669103945079123 C57.94982430367761 0.36145899061632675, 115.5674848214939 2.0395126946491056, 201.6440709632943 -1.4204668208595714 M-0.882628412149189 -0.5908364535041529 C66.65001003029629 -1.615141767616887, 133.29952981522416 -0.4983494289470507, 201.2178722883744 -0.14608547981642073 M202.4808972682804 1.3920371625572443 C200.06174556118435 40.573403507377954, 201.93785879713482 77.05458407644183, 200.11051871441305 159.84886343218386 M202.94769248832017 0.0641037030145526 C202.49504367127082 43.142751696985215, 202.96040607108733 86.27069607004523, 202.8660880373791 159.93565232586116 M203.3355354602055 158.18743958043746 C123.29052769013343 160.23979210822938, 44.838739130567795 158.52985621246816, 0.13801165231974943 160.71557792662546 M202.7979904937573 159.1275401596571 C153.33201506929723 158.78262117127457, 103.59897817621113 160.34402769388683, 0.10657866937016433 158.73633396720334 M1.9075395669788122 157.84243763424456 C0.39793488386087117 118.58440420115366, 1.0571635067742318 81.53939300011844, 1.421663424000144 1.1151399109512568 M0.8122417079284787 158.7194834155962 C-0.6134826371725648 104.65209016734732, -0.27860004997812204 48.76625648178158, -0.08463030587881804 0.8105049235746264" stroke="#000000" stroke-width="2" fill="none"></path></g><g transform="translate(549.5 488.5) rotate(0 69.5 11.5)"><text x="69.5" y="18" font-family="Helvetica, Segoe UI Emoji" font-size="20px" fill="#000000" text-anchor="middle" style="white-space: pre;" direction="ltr">sharded table F</text></g><g transform="translate(96.5 550) rotate(0 70 11.5)"><text x="70" y="18" font-family="Helvetica, Segoe UI Emoji" font-size="20px" fill="#364fc7" text-anchor="middle" style="white-space: pre;" direction="ltr">Data for client 1</text></g><g transform="translate(546.5 550.5) rotate(0 70 11.5)"><text x="70" y="18" font-family="Helvetica, Segoe UI Emoji" font-size="20px" fill="#364fc7" text-anchor="middle" style="white-space: pre;" direction="ltr">Data for client 1</text></g><g><g transform="translate(280 255.5) rotate(0 133 1.5)"><path d="M0 0 C44.333333333333336 0.5, 221.66666666666666 2.5, 266 3 M0 0 C44.333333333333336 0.5, 221.66666666666666 2.5, 266 3" stroke="#000000" stroke-width="2" fill="none"></path></g><g transform="translate(280 255.5) rotate(0 133 1.5)"><path d="M237.69530036431175 12.942030905879747 C248.18637021802445 9.257040707649763, 258.6774400717372 5.572050509419778, 266 3 M237.69530036431175 12.942030905879747 C244.3215870294475 10.61454650703686, 250.94787369458322 8.287062108193972, 266 3" stroke="#000000" stroke-width="2" fill="none"></path></g><g transform="translate(280 255.5) rotate(0 133 1.5)"><path d="M237.9267278485091 -7.577872692953196 C248.33201965355732 -3.6572092429326752, 258.7373114586056 0.26345420708784584, 266 3 M237.9267278485091 -7.577872692953196 C244.49883606016465 -5.101534216552512, 251.0709442718202 -2.6251957401518267, 266 3" stroke="#000000" stroke-width="2" fill="none"></path></g></g><g transform="translate(366.5 230.5) rotate(0 33 11.5)"><text x="33" y="18" font-family="Helvetica, Segoe UI Emoji" font-size="20px" fill="#000000" text-anchor="middle" style="white-space: pre;" direction="ltr">relation</text></g><g><g transform="translate(206 473.5) rotate(0 0.5 -69)"><path d="M0 0 C0.16666666666666666 -23, 0.8333333333333334 -115, 1 -138 M0 0 C0.16666666666666666 -23, 0.8333333333333334 -115, 1 -138" stroke="#000000" stroke-width="2" fill="none"></path></g><g transform="translate(206 473.5) rotate(0 0.5 -69)"><path d="M11.056059276997088 -109.73561124281085 C8.017232986651376 -118.27678679379135, 4.978406696305664 -126.81796234477184, 1 -138 M11.056059276997088 -109.73561124281085 C8.403182078545164 -117.19200647644345, 5.75030488009324 -124.64840171007606, 1 -138" stroke="#000000" stroke-width="2" fill="none"></path></g><g transform="translate(206 473.5) rotate(0 0.5 -69)"><path d="M-9.46461055966604 -109.88431174887363 C-6.302324736661367 -118.38055170482986, -3.140038913656693 -126.87679166078607, 1 -138 M-9.46461055966604 -109.88431174887363 C-6.703953926712373 -117.30147847648155, -3.9432972937587065 -124.71864520408948, 1 -138" stroke="#000000" stroke-width="2" fill="none"></path></g></g><g><g transform="translate(281 552.5) rotate(0 124 -1)"><path d="M0 0 C41.333333333333336 -0.3333333333333333, 206.66666666666666 -1.6666666666666667, 248 -2 M0 0 C41.333333333333336 -0.3333333333333333, 206.66666666666666 -1.6666666666666667, 248 -2" stroke="#000000" stroke-width="2" fill="none"></path></g><g transform="translate(281 552.5) rotate(0 124 -1)"><path d="M219.8928821635975 8.487608255964933 C229.590595222254 4.86910079710972, 239.2883082809105 1.2505933382545065, 248 -2 M219.8928821635975 8.487608255964933 C228.77109354067056 5.174881441414009, 237.6493049177436 1.8621546268630862, 248 -2" stroke="#000000" stroke-width="2" fill="none"></path></g><g transform="translate(281 552.5) rotate(0 124 -1)"><path d="M219.72739392715303 -12.032933063148405 C229.48220488680965 -8.571300797989265, 239.23701584646628 -5.109668532830125, 248 -2 M219.72739392715303 -12.032933063148405 C228.65787816806522 -8.86382476164575, 237.58836240897742 -5.694716460143095, 248 -2" stroke="#000000" stroke-width="2" fill="none"></path></g></g><g transform="translate(212.5 381) rotate(0 33 11.5)"><text x="33" y="18" font-family="Helvetica, Segoe UI Emoji" font-size="20px" fill="#000000" text-anchor="middle" style="white-space: pre;" direction="ltr">relation</text></g><g transform="translate(369.5 530) rotate(0 33 11.5)"><text x="33" y="18" font-family="Helvetica, Segoe UI Emoji" font-size="20px" fill="#000000" text-anchor="middle" style="white-space: pre;" direction="ltr">relation</text></g><g transform="translate(73 687.25) rotate(0 342 119)"><path d="M0.570065101236105 -0.7874982319772243 C150.49285716302694 -2.1674906911402942, 301.75049648433924 -2.104227107957006, 684.706894453615 -0.6978295527398587 M-0.03377398066222668 0.09617945365607738 C194.3343112938106 1.4642029761373998, 388.5026548232883 1.839425623327494, 683.9632496137172 -0.37789625711739067 M684.0103627553634 1.5857465471624799 C683.5962580597214 82.08686578630234, 682.6911943081003 164.36701813046616, 682.3796215882201 239.44920016961095 M683.9167843825134 0.623079503817984 C685.360059623643 93.45095246777537, 686.4016100865101 187.02212447899495, 683.8647073169032 238.06438783125628 M684.2025048576295 238.71198263540865 C413.4775664325803 239.03964354492723, 142.12453581392762 238.23040804363788, 0.7901078306138516 238.09509156122803 M683.7885517496616 238.38150791339575 C498.6821882292628 235.98425051373243, 313.47825581543145 236.1160962383151, -0.024174259230494502 238.28433268480003 M0.605818122513669 239.35910065731554 C-1.3839764870156448 151.96436919752705, 0.1818822479554255 67.85455364574103, -0.38040686454089356 -0.14160945347421688 M-0.6804179881310608 238.18367972556297 C-0.027416881202035226 147.0201249376266, 0.39662556794660775 56.156581010697565, 0.2500644324471924 -0.11821814157346822" stroke="#000000" stroke-width="2" fill="none"></path></g><g transform="translate(81 754.25) rotate(0 101 79.5)"><path d="M0 0 C0 0, 0 0, 0 0 M0 0 C0 0, 0 0, 0 0 M1.5583753668795932 12.517513238310396 C2.725123234370509 8.069769752204099, 4.770208601609004 8.481715307883437, 11.955154320550097 0.5528181712224844 M-0.19784235049973858 12.532077620595276 C3.7517680777535034 7.312309642752317, 8.303813827375905 3.021508189992491, 10.553531715971364 0.42807255118039866 M1.756961928885362 24.269626412256716 C6.635251725650214 15.15778190111247, 15.153121583945527 6.482118248596414, 21.09647870091524 1.9205936746835235 M0.07062633635469417 23.16423936439222 C6.331000320447194 17.62307529913009, 10.558659094478415 11.38930537966954, 20.622705580012763 0.4182745911344412 M0.8213500714767257 35.70993401464199 C10.23323595387312 21.06712226344965, 21.66377884787608 7.217116083505523, 32.013770009807146 1.3879760933353786 M-0.5057138457056602 37.00758770369117 C6.794927548689676 27.85122504713545, 13.311744210458441 19.933379535629804, 32.783485826521016 0.3401646885334735 M-0.7479423657060451 49.374877358459756 C9.139744238098906 36.2724062158381, 18.34493867940851 26.809006285761964, 42.30202727634065 0.7530998297362572 M-0.619885570369739 48.80444503729127 C15.437404947584898 29.9358657050735, 31.344098049573127 13.151673911299191, 41.987893811981905 -0.7833582313404435 M-1.1088665014972179 60.18609717627655 C20.026197556094466 38.08847134929091, 39.75068871441735 11.64424379412143, 54.95349903567201 -1.1549945887700908 M-0.9489744779561846 60.333965525493426 C18.890782145092086 40.87291812859403, 35.3858333111425 20.341342636183974, 53.57720761256731 -0.11827927590918463 M1.465201199259461 73.98825899543611 C18.75934754766952 49.34868488842629, 39.446908259142454 27.25780202171059, 64.25144944795747 -0.8920322598399153 M0.1061100077068815 73.29735156087575 C17.19246694210766 54.09240247403386, 34.80568154652885 34.082558862157995, 63.981572491949095 -0.12257574009462502 M1.4918998967202413 83.7412627182822 C22.507773052753116 61.4377973598544, 39.99824026120639 37.17331441812268, 75.33265829835328 -0.9610039061294628 M0.48332565029133434 84.85381334851638 C18.27632779459519 63.58100488723041, 36.76917027419055 41.54883427369741, 74.43875090129914 -0.7649671063186361 M1.1863253470508681 99.71245220238134 C24.53012574664627 69.66933778851977, 49.750562987355444 40.10626901955845, 85.74992099701569 1.625334124705006 M-0.47781162802145616 98.15652848621622 C31.041188450637975 62.0656913671452, 61.49087448456576 24.93035007780439, 85.71287247928933 -0.7436650445031034 M-1.3522339816113984 109.89527693963171 C20.932065952753273 84.9234438371793, 43.18187984697968 60.06894106617162, 97.03454857910097 0.7819598600072482 M-0.6932416305786049 110.11505364360781 C27.14338411724509 76.91987237097365, 55.05009961037264 45.426043110531566, 95.81318405209154 0.29487658793010496 M-0.5141510831008134 121.97504953759989 C31.56141858270895 86.27990214230638, 60.09574598182153 50.04410228816886, 108.25886770476532 0.7890857021210209 M0.4480359398012581 121.7048320434921 C36.004358987015806 80.51874942326167, 73.12602272467794 37.980694577855814, 106.71279963337761 0.5372117460591213 M1.0072757027388803 135.74760739862955 C44.05955053335334 83.51452454221764, 87.22599976994488 33.41583526284185, 114.94266163017454 -1.5156319913871599 M-0.5730524032099851 133.72960514094717 C35.84630624412962 89.64093143691703, 73.24268500561917 46.482554644291184, 115.41139139532896 0.5388617776848363 M-0.8777363389360886 145.31152230006452 C50.10676592060159 87.64908677916978, 101.12308926679422 32.774796960291155, 125.23990632346585 -0.31843122861909734 M-0.34296295844048075 145.3573722035512 C34.88497074772266 105.20453062868545, 72.24597375942335 64.19563368692164, 127.27817578459843 0.9867271024398221 M1.0773140492038005 159.20604477507018 C52.49918037815067 96.88634653539624, 106.83918638198452 33.15678200571661, 135.79482595324714 1.0394528416461277 M-0.4276896890979738 159.5558692101139 C31.338631513058285 122.13861846982698, 63.79778393949221 84.87475622577132, 137.7993944573504 0.9266384083168939 M6.335970411394395 164.27469684202865 C42.587363201339336 121.31549073632323, 79.49456584522473 79.95092999599746, 146.95700503005415 -0.8674765092333716 M6.6272193838142375 163.62645252027386 C51.653150594491116 113.33823436073915, 97.55761776835381 62.25837523637022, 148.10477338302735 -0.02129094066901338 M17.573144247454398 164.3085401912242 C56.0270753700302 120.47360267353508, 92.22508280179034 74.3739064942352, 159.05853709843228 -0.9843321322973329 M15.896822463816406 164.25894780173422 C53.056297450391334 120.80539494363546, 90.62361972174583 77.97942495263507, 159.52858373266147 -0.11080325496365301 M28.391571284045376 162.56684557260363 C83.40802070313724 98.48058580491444, 136.84605801095157 36.39318477443734, 169.6216096351148 -0.4895622315758935 M26.566733960203432 163.62109039810852 C81.14750911598202 100.09121389130937, 135.65213976027152 37.00016773285454, 169.32173211635623 0.29327697329236646 M39.10965702800331 163.56011826370593 C66.41953613275935 130.69630806419036, 97.31779426376582 98.78373481610402, 180.04906889068772 1.5641760267200084 M37.64143790861989 164.07331050656475 C72.95833912291913 120.70594247150615, 110.20349256856537 77.7593740948654, 180.8358288478812 0.22570491314201394 M48.283803579914135 165.63440524832018 C77.64061780333274 128.14911660296883, 110.65638540360838 90.84730221523841, 190.036235109487 0.7769281826294362 M48.33907189783531 164.53459882114583 C91.9584243108242 115.38143084785683, 134.87495127290936 66.10557214712203, 190.19997269413096 0.536865330503258 M57.55689823411377 163.96755221648547 C92.49847341700149 124.39267124865037, 129.76716194473093 83.19411080240788, 200.6761143295985 -0.885916517558534 M58.71791716974419 164.6500276327698 C91.5653842173349 126.17203726070242, 124.50739469163389 88.02352197065298, 201.7650937751249 0.21554808816908183 M71.29643133980169 162.26400377492544 C101.92103630576209 125.73059100177616, 133.13704707124975 87.51221252086238, 208.40288930671562 5.467703485986599 M69.42953297615041 164.60883756423522 C108.20647929372798 121.61986319728307, 145.28903083620148 79.44621859850274, 207.35388590615403 5.090367777272101 M80.4580779524722 165.61303249120255 C114.27313932894407 121.77296840065014, 149.52241959387504 83.6817754190145, 209.43016869720938 17.66636338559205 M80.66939447933964 164.07310090984691 C105.69828116778068 135.18744036848355, 130.9639255941335 105.13533321120815, 208.16513148934516 17.055302571591383 M90.02851028309263 162.85067476703216 C121.97972319059564 129.55978070865203, 148.8745596341535 94.86464917084284, 206.81750887416234 30.944223675820965 M91.73514108021803 163.62588280717273 C132.17237845283782 113.91282947468069, 175.47903604352334 64.24937769325658, 208.003750024996 29.99081556772812 M99.91192517291717 164.06943238404827 C128.1199078516754 133.8938584743381, 152.58617545460856 105.68972177550152, 207.25470905172568 40.01417342833014 M101.7162805567678 164.10816623800682 C138.58724791249196 124.2072872784895, 173.22523396522863 83.31790778035868, 208.03531880936515 40.82778444307627 M111.13572740710201 163.12568961959465 C143.03680394829507 124.50490320991909, 178.03041878204027 88.0011224848903, 207.45081464005557 55.20720629546334 M111.28026286016079 163.99654421992733 C137.7543638488347 135.4421478716544, 164.07054236242465 105.1429408749236, 207.19584248112437 53.44612252771397 M122.98727836681299 165.62077470623785 C148.43367889808545 136.57416493884347, 173.5894331233134 108.01513912546226, 209.09338667430836 64.78205030456432 M122.71484610007845 165.0428271632352 C140.11303533199734 143.4804192799608, 158.7274765978392 122.84869025132602, 207.16644286644566 65.27750096421936 M131.2006321451873 163.319621510876 C156.00135931655973 138.09351832930017, 179.54911286278218 110.74078934580935, 207.75494278564975 79.11737743819957 M132.2710826606736 165.0364545500629 C156.47996441235568 137.6910104710609, 177.2497182130063 112.32970254286293, 208.43604995001033 78.84130828789328 M141.58268137339073 166.11652701607574 C159.27657743361732 142.90356756234564, 180.94194576861395 123.61412804926644, 207.07969331721694 89.13046531326735 M142.94571502662765 165.11400241571147 C166.56796351147977 136.71294746297434, 192.03217353405918 108.91982748968849, 206.6443879909712 90.5070621058684 M152.19989333657952 164.4538129991807 C164.5391499669776 150.96333383046573, 177.61632076440003 135.4048185499797, 208.40968715017578 102.24295466233414 M154.82416189911248 164.52159502775893 C164.974147686061 150.62818204093583, 176.65151476949572 139.42677493364113, 207.3643713490098 101.80391657844555 M166.28475094490992 165.51403561253468 C176.20994303792847 151.22680223528627, 184.36591413820634 141.45422278020123, 208.97154781968248 112.7995110127437 M165.14320916679995 164.15086446628342 C180.795311207545 146.89562710079628, 197.52495059134003 127.55038956271977, 208.44509060029787 114.18307409820287 M175.79825273353816 162.6574853834815 C181.22085747270802 154.35730702954905, 192.63348094226043 145.56204946539438, 206.12685545690275 127.01474384706258 M176.00975990586193 164.32020062386314 C180.83760042513336 156.86590969028717, 187.75611951176853 150.05567236053878, 207.4184444795168 127.30845445044129 M186.99241286262045 162.85968721436475 C191.69067946386397 157.46064505578912, 199.7545397983859 151.0588809586055, 207.55888290497387 137.3918682821889 M185.11958437997023 163.5560012055761 C191.53331941500016 157.52186009552526, 198.1487552462905 149.35763647143511, 207.84212599581952 139.81910649229332 M196.04973910201352 164.1531998532175 C199.2433760729632 162.17262386881163, 200.88621837234237 159.31664276809136, 208.70977298952548 150.78731826658625 M197.32755168654967 164.34446799771888 C199.93637503811155 160.8522729316995, 202.76312541122533 156.43895397365074, 208.01555819627737 150.7450333874513" stroke="#7cb7e6" stroke-width="1" fill="none"></path><path d="M-1.765256824298378 -1.1816729070083059 C66.72140613132835 -1.9396464492278604, 133.44183177191982 0.29393822811181214, 200.4357445767488 -0.29217095963284145 M0.2155959594949167 0.6240783791250962 C48.626625061946505 1.0290529851832053, 98.53107003753462 0.07055003078747009, 201.1529073721494 0.3805626236893553 M203.89538497664034 0.1282074060291052 C202.84489188673905 42.665960563812405, 203.77561668637208 85.30230647977442, 203.73217607475817 160.8713046517223 M202.74474419187754 -0.4531138790771365 C203.22845463455656 62.379217515606435, 203.1120917350147 123.01309786811471, 202.0769604248926 159.95666999090463 M203.59598098751465 159.2550803193142 C153.49007547721772 158.10676790026824, 102.85004702966873 161.22958094549276, 0.21315733874032866 158.47266793440664 M202.85518852017586 158.48104140867204 C152.5615765664629 157.25991002666163, 103.72936543254167 157.98836608533276, 0.6373604305804292 159.49993974790564 M1.6244834158569574 158.43896683119237 C-1.4295283936243504 105.30738048320634, -0.7597632192354649 48.53891326058654, -0.16926061175763607 1.621009847149253 M0.219545672647655 158.689164374955 C-0.8230575475934894 113.3536694935523, -1.030467734122649 67.61421819888055, -0.14130183029919863 -0.7806503726169467" stroke="#000000" stroke-width="2" fill="none"></path></g><g transform="translate(96 772.25) rotate(0 70.5 11.5)"><text x="70.5" y="18" font-family="Helvetica, Segoe UI Emoji" font-size="20px" fill="#000000" text-anchor="middle" style="white-space: pre;" direction="ltr">sharded table D</text></g><g transform="translate(327 686.75) rotate(0 128 21)"><text x="128" y="33" font-family="Helvetica, Segoe UI Emoji" font-size="36px" fill="#000000" text-anchor="middle" style="white-space: pre;" direction="ltr">shard 2 schema</text></g><g transform="translate(530 750.75) rotate(0 101 79.5)"><path d="M0 0 C0 0, 0 0, 0 0 M0 0 C0 0, 0 0, 0 0 M-1.3776469535101548 12.584085704803048 C5.503917068416104 8.628115505271875, 8.852721468233497 3.990674728218417, 11.690943580818308 -1.1637994219467283 M-0.0009613468218935273 12.17500615385133 C3.0174111289748486 8.888478096997613, 5.951143919183273 6.432068821068882, 10.819881837767493 -0.18519822777363049 M0.32925301624455194 23.332704327716588 C8.520259942345438 15.02185533659356, 17.959015206884573 5.317419561589713, 19.696472954282427 -1.7568020379007336 M-0.11797236165038605 23.31648796116477 C6.008773198566694 16.578886354778152, 12.749914235391756 11.176323212521295, 22.105959530265892 0.5697072599246624 M-2.057906583054038 35.11196316015099 C9.488234446434486 24.1056783817872, 24.2041688964957 9.188498981865838, 30.238705016157425 1.225667627645958 M-1.1297048638668379 36.337150045485544 C7.686917726604733 27.647381276944117, 17.82547472508864 15.97053587130883, 31.75040911738465 0.6943379669695382 M-0.7073058746755905 46.93893588953547 C12.900625096341287 35.726796452337716, 23.578918023040867 24.041549491101105, 41.017362477812696 0.6986100867717511 M-1.067107272334475 48.96566949752055 C10.741024564348422 36.2462310292846, 20.639472809544795 25.411545552951974, 42.36320911496483 0.061632057498300696 M1.175130389733127 59.00003375624905 C11.867309689100729 48.075709440870256, 25.203881186166193 32.10791181774711, 52.95718899159199 -1.0371323753671042 M0.3434794015343101 60.375182411164445 C11.691570191821743 48.443471963977025, 22.141824749554278 35.57827220337401, 52.777397853084565 0.2648207326828249 M-0.9702291374841323 73.33047404544799 C22.13595463925112 46.988668752437, 45.69397392369511 19.02563140287181, 63.91066258483906 0.985298151385642 M1.052280987817646 73.9167324875891 C19.119959794422073 51.37996294747212, 37.7249158114862 29.23155144311007, 63.877771474321975 -0.7014976188050142 M-0.27528142898361807 84.13148966728852 C26.18020767515025 54.467586643628024, 53.60566337572534 21.85589278304696, 76.09549565989765 -2.0387247978137566 M-0.18871887090634232 84.5927306154664 C23.37745024278641 57.79801020514901, 47.46727154613833 30.389022486843217, 75.38213393375518 -0.722607420793338 M0.33725188858791455 98.08753873714969 C30.713680722450857 61.91842491512502, 64.13068276590836 26.047335591621263, 85.53213499411152 0.8771879371909392 M0.2994122514499651 97.53041445119098 C22.2924711350285 71.00983688356865, 46.20590175839086 42.513003052637174, 85.62254699896232 -0.8449259096102821 M0.21556065055522566 108.90996625474216 C23.98340854390258 85.37393557545433, 46.57718482585081 57.66056061867847, 97.48126173982442 0.07294114155598663 M-0.4719583195542967 109.68176009798916 C23.372892698570837 83.27480797593078, 46.60001122324016 56.34784291097116, 96.32658025002152 0.4427468659160354 M0.4798919802715602 121.42776158544501 C28.556841956947153 89.57642569341084, 59.21745296698334 55.15599495608515, 107.88129142438007 -1.1955447745623573 M0.6858674671684923 122.07048958725562 C37.36700360067886 80.41918925775184, 74.04364857602168 38.834394706168396, 106.39856107951087 -0.07202195554250324 M0.08428640508067531 134.13122013941444 C38.649852506174376 86.53927234500892, 76.66640028210394 42.52826607008056, 118.12981492113175 1.5608758042149233 M-0.45559549580353575 133.4919825576622 C26.12541367417555 103.25245574120396, 53.44564904295143 74.64271103309905, 116.04476566351804 0.14816153240874286 M-1.4019811726737004 147.48915295180674 C31.796128133329717 109.12261385975296, 61.36884066636652 75.18182478717164, 127.1453345654042 0.6082353775985254 M0.5831754966077227 146.9867358353808 C31.459981041548964 112.84387726003511, 61.92053208283393 78.84587492750816, 127.17890507760211 1.0904296829960956 M0.8441679234774508 158.32784983844613 C50.45107239624251 98.29579522283125, 103.33812976180275 39.531763831058285, 138.71282175036163 0.1065913549038773 M0.07380358180907431 159.2533131642345 C37.0717634085618 114.5792223318732, 75.90152205213484 69.81999678736594, 138.18161136402213 0.42321236114273453 M5.6084999460733425 165.115724529524 C53.51020706831246 107.96187132593299, 98.6385620530198 55.27106877452502, 146.5598111796581 -1.2535825769157452 M5.621818652204268 164.753848975396 C63.05220605572477 99.78355326619234, 118.61888186771883 34.94608024046973, 148.6600921083561 -0.5984541954549742 M16.446993474765257 162.74176931375487 C66.93434408184176 103.35921926017282, 119.04584216189869 42.52697391014538, 158.4506305858952 1.0820523900238794 M16.35850275471067 163.97765835875094 C49.64741244377731 126.53141705436458, 83.65991651051864 87.46722557334793, 159.04661411051768 0.5057390417116058 M25.619595443258167 163.4750957332824 C81.93519856594 101.5311731726916, 134.67926789528374 41.15618496348124, 169.30752819228482 1.5067173225335724 M26.923825276134888 163.25500332548296 C61.8742831013421 124.8965558019355, 97.01753531381942 84.28098097423874, 168.78448547485877 -0.15367795131895756 M36.79411384784118 165.39713105744246 C92.34544692983832 102.0986827924263, 147.99323135124354 38.96135283434848, 181.68663255136613 1.2564214336992714 M37.96132710426994 163.49877932998658 C79.43284871940726 117.28495968582936, 121.34122071645646 67.6020863520631, 180.5031185610474 0.7766075579728666 M49.48956219105335 164.28252514932106 C89.23943468077024 115.39234611801182, 132.36383124927468 67.29664411356285, 189.58260832192818 -0.6851260696430862 M48.71601212378378 163.49300717978133 C90.92158682827403 114.36771555997186, 133.71141066181514 64.90387750661125, 191.10243542562657 0.5714221552316099 M60.32913968168372 165.42074626575408 C90.61147051697442 127.72542592225635, 120.538424407347 91.15597035353316, 202.34423486900997 -0.9947505869075488 M58.58695311621936 164.00587673551175 C96.18235138845036 119.10324378102806, 135.60198365651073 73.3246663702435, 201.15021932201415 0.6416187792268175 M69.5223776674911 162.2979620708312 C124.84091954123804 101.20001651994335, 181.7004712348512 37.012850122426514, 207.11535495024128 3.407268512978434 M69.5511988230649 164.0605835729857 C108.30749760290264 117.41254568585022, 147.15166167070655 72.7957066490592, 207.26003586258582 4.717124297343398 M78.40277850276016 162.2532954414143 C118.78287150621134 121.27983578684092, 158.67289365367958 71.66120245095938, 207.90724541765573 16.636736051265544 M80.82358942480914 163.2173136680155 C124.09754727193442 113.88081931391946, 167.51446366334977 62.108063470193656, 207.39542827435704 16.711411880415326 M89.9810174921254 162.32616198806454 C120.32955179301788 127.33998827058986, 153.5495681177872 94.67220244438168, 209.30038953728905 30.07671346509828 M90.89086196419842 163.428673424743 C136.41881782651112 112.53239632550716, 182.54094685749874 59.24714647657848, 207.66946595225414 29.76434024510904 M101.46108715470842 163.66745542985635 C126.12330419127846 135.50985506838785, 147.0062791574434 109.50060801751411, 206.08016657623392 39.67433896547885 M101.57913383983038 163.89899295167314 C135.30905726875883 123.4789750985894, 169.34880040356907 83.97789513632111, 208.62141824959707 42.43386387805225 M111.92007489285292 164.363174301946 C137.9329458354183 136.11054956807186, 162.3352217065832 108.05962237018497, 206.610773311834 53.57225171256353 M112.80152150678309 164.67267532497777 C131.973144946636 139.1867700474538, 153.4505891880082 115.84330042812547, 208.66147193396387 52.84544054291685 M123.08174345491223 165.54504234471256 C153.05411008067708 130.66006711047154, 180.11519211345785 93.68486675014026, 207.49664089643318 64.26660649150857 M121.67934020364426 164.1377003885516 C152.80535385842583 128.06321396648394, 183.74292840287376 93.09907106152062, 208.09532158543277 65.18214519087472 M133.37826705121105 163.93417018286664 C150.53424234533114 145.42460338336548, 167.55335848879645 125.80689125291323, 206.3638758283846 78.92428329269295 M131.94759006847298 163.72553643312085 C150.93431773288071 142.55510564523763, 171.01590970268794 119.3858228971467, 208.24936056759134 79.15812954082047 M143.45137718010264 165.93181280678738 C158.20330419359314 148.67033889536575, 168.73095006395567 134.97875329991007, 207.92199606801302 91.92654899082744 M143.79985196485686 165.1581476775803 C159.83077052494838 144.4824351583459, 176.45316215936907 125.33077633052571, 206.87616714349866 90.71853375848049 M154.21409874393078 164.16303125163094 C163.42558107235513 152.28046259753754, 176.51562384011086 136.69112760232142, 209.46507686367175 102.95981482629102 M153.29377359787406 165.14790594810174 C175.5956168213048 139.85253665703328, 194.72844334639154 115.72417926872086, 207.99940030174247 103.28649393774938 M163.6321910200392 163.79390217755358 C181.9189528178188 145.87266246202407, 195.91149793067376 127.06006676623787, 206.93348686770452 113.55929808423994 M165.4762604851027 164.87105025835703 C180.0198572791565 147.19890403150438, 195.09492681182618 128.36587227008053, 207.31928587240083 114.46305377979903 M174.16164766077162 166.09401786971162 C185.05189099863185 151.1520151953159, 196.3970488301306 138.2979457195954, 207.0392700784645 126.18094125505327 M175.16472595662088 163.68643680951814 C187.98558435931338 150.6088120795597, 199.56991949415098 136.326973167359, 206.68174846906132 128.2553337535241 M186.18619669347177 165.9989862382612 C194.5456567598219 155.4114345231098, 199.5600952352148 146.41949485930178, 209.32788195627654 140.74507371344163 M186.7283411550067 163.85428899025683 C191.03543921226986 159.02617567139475, 196.3336282563674 152.2156713457787, 207.48389760478312 139.7764427746509 M197.3094725947083 163.7486257236733 C200.29112040391138 161.70617818624163, 202.04704898208703 156.75139662816477, 207.6732776382929 152.52021891831683 M196.81178443233492 164.24333979830172 C200.397647551313 159.3894163070856, 204.75865725099754 154.09590481394068, 208.3869276666539 150.62073793251332" stroke="#7cb7e6" stroke-width="1" fill="none"></path><path d="M-0.649009363221947 0.2846039133913554 C42.300244956692815 -1.7084755473359734, 81.13916832551733 -1.1684013609766872, 200.91260838947656 -0.15141557765285593 M0.8761232517538208 0.40437900868632004 C65.37468270699 0.035082686154236487, 131.29468744295318 0.6520682228759072, 202.08187931545223 0.005552994107679649 M201.04641773365438 1.6304212305694818 C200.1651457072515 64.50048663904892, 203.97322953951544 127.28346441630275, 203.87234159372747 158.80107081867754 M202.7918133782223 -0.37641983199864626 C201.11783852561376 59.61839307574556, 202.23621892317198 118.4999962590635, 202.3284426080063 159.25313107203692 M200.64829345798734 157.5021377069152 C125.19354495914368 159.53243936273967, 44.31754484627032 158.30081896722487, -1.2303623604155458 158.05203478118622 M201.21735489766354 158.98487871652455 C122.07966132984866 159.0098135116581, 42.76764049493364 158.78429863469034, -0.11423036245016864 159.3246341679089 M1.3105806317180395 158.03767366148531 C-0.008665073188021788 98.21609623217955, 2.0670312163513156 37.537045429460704, 0.599498113617301 -1.6265575792640448 M0.1960068391636014 158.4461332662031 C0.7931215339247137 107.66792197460308, -0.2864217287953943 55.84431101717054, -0.3474630368873477 -0.3882535891607404" stroke="#000000" stroke-width="2" fill="none"></path></g><g transform="translate(549.5 768.75) rotate(0 69.5 11.5)"><text x="69.5" y="18" font-family="Helvetica, Segoe UI Emoji" font-size="20px" fill="#000000" text-anchor="middle" style="white-space: pre;" direction="ltr">sharded table F</text></g><g transform="translate(91 830.25) rotate(0 70 11.5)"><text x="70" y="18" font-family="Helvetica, Segoe UI Emoji" font-size="20px" fill="#364fc7" text-anchor="middle" style="white-space: pre;" direction="ltr">Data for client 2</text></g><g transform="translate(541 830.75) rotate(0 70 11.5)"><text x="70" y="18" font-family="Helvetica, Segoe UI Emoji" font-size="20px" fill="#364fc7" text-anchor="middle" style="white-space: pre;" direction="ltr">Data for client 2</text></g><g><g transform="translate(286.5 832.688185432205) rotate(0 121.25 -0.9716702208842207)"><path d="M0 0 C40.416666666666664 -0.3238900736280736, 202.08333333333334 -1.6194503681403678, 242.5 -1.9433404417684415 M0 0 C40.416666666666664 -0.3238900736280736, 202.08333333333334 -1.6194503681403678, 242.5 -1.9433404417684415" stroke="#000000" stroke-width="2" fill="none"></path></g><g transform="translate(286.5 832.688185432205) rotate(0 121.25 -0.9716702208842207)"><path d="M214.3923500812668 8.542841706465438 C223.2707295274898 5.230565357378689, 232.14910897371277 1.9182890082919393, 242.5 -1.9433404417684415 M214.3923500812668 8.542841706465438 C224.09228184981282 4.924067043891361, 233.79221361835886 1.3052923813172832, 242.5 -1.9433404417684415" stroke="#000000" stroke-width="2" fill="none"></path></g><g transform="translate(286.5 832.688185432205) rotate(0 121.25 -0.9716702208842207)"><path d="M214.22790301281992 -11.977707982749 C223.15822644855152 -8.80814657191355, 232.0885498842831 -5.638585161078103, 242.5 -1.9433404417684415 M214.22790301281992 -11.977707982749 C223.98458535809806 -8.514854248287405, 233.7412677033762 -5.052000513825811, 242.5 -1.9433404417684415" stroke="#000000" stroke-width="2" fill="none"></path></g></g><g transform="translate(369.5 810.25) rotate(0 33 11.5)"><text x="33" y="18" font-family="Helvetica, Segoe UI Emoji" font-size="20px" fill="#000000" text-anchor="middle" style="white-space: pre;" direction="ltr">relation</text></g><g><g transform="translate(82 822.5) rotate(0 -1.1399999999999864 -244)"><path d="M0 0 C-8.666666666666666 -31.666666666666668, -47 -124.33333333333333, -52 -190 C-57 -255.66666666666669, -47.16666666666667 -344.3333333333333, -30 -394 C-12.833333333333332 -443.6666666666667, 37.5 -472.3333333333333, 51 -488 M0 0 C-8.666666666666666 -31.666666666666668, -47 -124.33333333333333, -52 -190 C-57 -255.66666666666669, -47.16666666666667 -344.3333333333333, -30 -394 C-12.833333333333332 -443.6666666666667, 37.5 -472.3333333333333, 51 -488" stroke="#000000" stroke-width="2" fill="none"></path></g><g transform="translate(82 822.5) rotate(0 -1.1399999999999864 -244)"><path d="M36.64870164859988 -461.6553566046321 C39.70224614029569 -467.2607407835324, 42.7557906319915 -472.8661249624327, 51 -488 M36.64870164859988 -461.6553566046321 C39.59826567107765 -467.06986408969203, 42.547829693555414 -472.4843715747519, 51 -488" stroke="#000000" stroke-width="2" fill="none"></path></g><g transform="translate(82 822.5) rotate(0 -1.1399999999999864 -244)"><path d="M23.072257290214598 -477.0436690842222 C29.014479577624794 -479.37486192112715, 34.956701865034994 -481.7060547580321, 51 -488 M23.072257290214598 -477.0436690842222 C28.81213274320887 -479.29547924775255, 34.55200819620314 -481.54728941128286, 51 -488" stroke="#000000" stroke-width="2" fill="none"></path></g></g><g transform="translate(37.5 649) rotate(0 33 11.5)"><text x="33" y="18" font-family="Helvetica, Segoe UI Emoji" font-size="20px" fill="#000000" text-anchor="middle" style="white-space: pre;" direction="ltr">relation</text></g></svg>